<?xml version="1.0" encoding="UTF-8" standalone="no"?>
<svg
   id="Logo"
   version="1.1"
   sodipodi:docname="a.svg"
   inkscape:version="1.3.2 (091e20e, 2023-11-25, custom)"
   width="110"
   height="150"
   xmlns:inkscape="http://www.inkscape.org/namespaces/inkscape"
   xmlns:sodipodi="http://sodipodi.sourceforge.net/DTD/sodipodi-0.dtd"
   xmlns="http://www.w3.org/2000/svg"
   xmlns:svg="http://www.w3.org/2000/svg">
  <sodipodi:namedview
     id="namedview20"
     pagecolor="#ffffff"
     bordercolor="#666666"
     borderopacity="1.0"
     inkscape:showpageshadow="2"
     inkscape:pageopacity="0.0"
     inkscape:pagecheckerboard="true"
     inkscape:deskcolor="#d1d1d1"
     inkscape:zoom="4.8153972"
     inkscape:cx="184.30463"
     inkscape:cy="73.825686"
     inkscape:window-width="2560"
     inkscape:window-height="1377"
     inkscape:window-x="2552"
     inkscape:window-y="-8"
     inkscape:window-maximized="1"
     inkscape:current-layer="Logo" />
  <defs
     id="defs1">
    <style
       id="style1">
      .cls-1 {
        fill: #fff;
        stroke-width: 0px;
      }
    </style>
  </defs>
  <g
     id="g19"
     transform="matrix(0.63482304,0,0,0.6846187,-61.157685,-18.946265)">
    <path
       class="cls-1"
       d="m 153.82,223.47 v 2.71 h -9.37 v -14.03 h 3.16 v 11.32 z"
       id="path1" />
    <path
       class="cls-1"
       d="m 155.84,226.18 v -14.03 h 9.47 v 2.65 h -6.32 v 2.75 h 5.61 v 2.59 h -5.61 v 3.38 h 6.78 v 2.65 h -9.94 z"
       id="path2" />
    <path
       class="cls-1"
       d="m 174.95,214.58 c -1.47,0 -2.53,0.41 -3.19,1.22 -0.65,0.82 -0.98,1.93 -0.98,3.35 0,0.69 0.08,1.31 0.24,1.87 0.16,0.56 0.4,1.04 0.73,1.45 0.32,0.4 0.73,0.72 1.21,0.94 0.48,0.22 1.05,0.33 1.7,0.33 0.35,0 0.65,0 0.9,-0.02 0.25,-0.02 0.47,-0.04 0.66,-0.08 v -4.88 h 3.16 v 6.94 c -0.38,0.15 -0.99,0.31 -1.82,0.48 -0.84,0.17 -1.87,0.25 -3.1,0.25 -1.05,0 -2.01,-0.16 -2.86,-0.49 -0.86,-0.32 -1.59,-0.8 -2.2,-1.42 -0.61,-0.62 -1.08,-1.38 -1.41,-2.29 -0.33,-0.9 -0.5,-1.94 -0.5,-3.1 0,-1.16 0.18,-2.21 0.55,-3.12 0.37,-0.91 0.86,-1.67 1.5,-2.3 0.63,-0.63 1.38,-1.1 2.24,-1.43 0.86,-0.32 1.77,-0.49 2.74,-0.49 0.66,0 1.26,0.04 1.79,0.13 0.53,0.09 0.99,0.19 1.38,0.3 0.38,0.12 0.7,0.23 0.95,0.35 0.25,0.12 0.43,0.22 0.54,0.28 l -0.91,2.53 c -0.43,-0.23 -0.93,-0.43 -1.49,-0.6 -0.56,-0.17 -1.17,-0.25 -1.83,-0.25 z"
       id="path3" />
    <path
       class="cls-1"
       d="m 182.32,212.15 h 3.16 v 14.03 h -3.16 z"
       id="path4" />
    <path
       class="cls-1"
       d="m 202.08,219.16 c 0,1.2 -0.18,2.26 -0.54,3.17 -0.36,0.91 -0.85,1.67 -1.47,2.29 -0.62,0.62 -1.36,1.08 -2.22,1.39 -0.86,0.31 -1.78,0.47 -2.76,0.47 -0.98,0 -1.86,-0.16 -2.71,-0.47 -0.85,-0.31 -1.59,-0.77 -2.23,-1.39 -0.63,-0.61 -1.13,-1.38 -1.5,-2.29 -0.37,-0.91 -0.55,-1.97 -0.55,-3.17 0,-1.2 0.19,-2.26 0.57,-3.17 0.38,-0.91 0.89,-1.68 1.53,-2.3 0.64,-0.62 1.38,-1.09 2.23,-1.4 0.84,-0.31 1.73,-0.46 2.66,-0.46 0.93,0 1.86,0.16 2.71,0.46 0.85,0.31 1.59,0.78 2.23,1.4 0.63,0.62 1.13,1.39 1.5,2.3 0.36,0.91 0.55,1.97 0.55,3.17 z m -10.71,0 c 0,0.69 0.08,1.31 0.25,1.86 0.17,0.55 0.41,1.03 0.73,1.43 0.32,0.4 0.71,0.71 1.16,0.92 0.45,0.21 0.99,0.32 1.58,0.32 0.59,0 1.1,-0.11 1.57,-0.32 0.47,-0.22 0.86,-0.52 1.17,-0.92 0.32,-0.4 0.56,-0.87 0.73,-1.43 0.17,-0.55 0.25,-1.17 0.25,-1.86 0,-0.69 -0.08,-1.31 -0.25,-1.87 -0.17,-0.56 -0.41,-1.04 -0.73,-1.44 -0.32,-0.4 -0.71,-0.71 -1.17,-0.92 -0.46,-0.22 -0.99,-0.32 -1.57,-0.32 -0.58,0 -1.12,0.11 -1.58,0.33 -0.46,0.22 -0.85,0.53 -1.16,0.93 -0.32,0.4 -0.56,0.88 -0.73,1.44 -0.17,0.56 -0.25,1.18 -0.25,1.85 z"
       id="path5" />
    <path
       class="cls-1"
       d="m 214.12,226.18 c -0.9,-1.61 -1.88,-3.19 -2.93,-4.76 -1.05,-1.57 -2.17,-3.04 -3.36,-4.43 v 9.19 h -3.12 v -14.03 h 2.57 c 0.45,0.45 0.94,0.99 1.48,1.64 0.54,0.65 1.09,1.34 1.65,2.08 0.56,0.74 1.12,1.5 1.67,2.29 0.55,0.79 1.07,1.55 1.56,2.28 v -8.28 h 3.14 v 14.03 h -2.65 z"
       id="path6" />
    <path
       class="cls-1"
       d="m 107.59,233.94 c 0.16,0.55 0.34,1.18 0.54,1.87 0.2,0.69 0.4,1.41 0.63,2.16 0.22,0.74 0.45,1.48 0.68,2.23 0.23,0.75 0.45,1.43 0.67,2.07 0.18,-0.69 0.36,-1.44 0.54,-2.25 0.18,-0.81 0.36,-1.65 0.52,-2.51 0.16,-0.86 0.32,-1.72 0.48,-2.58 0.16,-0.86 0.3,-1.68 0.44,-2.48 h 3.28 c -0.48,2.35 -1.02,4.73 -1.64,7.15 -0.62,2.42 -1.29,4.71 -2.01,6.88 h -2.89 c -0.47,-1.3 -0.93,-2.66 -1.37,-4.08 -0.44,-1.42 -0.88,-2.85 -1.31,-4.28 -0.43,1.43 -0.86,2.86 -1.3,4.28 -0.43,1.42 -0.88,2.78 -1.36,4.08 h -2.89 c -0.72,-2.17 -1.39,-4.47 -2,-6.88 -0.62,-2.42 -1.16,-4.8 -1.64,-7.15 h 3.42 c 0.14,0.8 0.28,1.62 0.45,2.48 0.16,0.86 0.33,1.72 0.51,2.58 0.18,0.86 0.36,1.7 0.54,2.51 0.18,0.81 0.37,1.56 0.56,2.25 0.24,-0.66 0.48,-1.36 0.71,-2.11 0.23,-0.74 0.45,-1.48 0.67,-2.23 0.22,-0.75 0.42,-1.46 0.6,-2.15 0.18,-0.69 0.35,-1.3 0.5,-1.84 h 2.69 z"
       id="path7" />
    <path
       class="cls-1"
       d="m 125.96,246.47 c -0.16,-0.49 -0.32,-0.99 -0.5,-1.5 -0.18,-0.51 -0.36,-1.03 -0.54,-1.53 h -5.48 c -0.18,0.51 -0.35,1.02 -0.53,1.54 -0.18,0.51 -0.34,1.01 -0.5,1.5 h -3.28 c 0.53,-1.51 1.03,-2.91 1.5,-4.19 0.47,-1.28 0.94,-2.49 1.39,-3.62 0.45,-1.13 0.9,-2.21 1.34,-3.23 0.44,-1.02 0.9,-2.01 1.37,-2.99 h 2.99 c 0.46,0.97 0.92,1.97 1.36,2.99 0.44,1.02 0.9,2.09 1.35,3.23 0.45,1.14 0.92,2.34 1.39,3.62 0.47,1.28 0.98,2.68 1.5,4.19 h -3.38 z m -3.79,-10.85 c -0.07,0.2 -0.17,0.48 -0.31,0.83 -0.14,0.35 -0.29,0.76 -0.46,1.22 -0.17,0.46 -0.37,0.97 -0.58,1.52 -0.21,0.55 -0.43,1.13 -0.65,1.74 h 4.01 c -0.21,-0.61 -0.42,-1.19 -0.62,-1.74 -0.2,-0.55 -0.39,-1.06 -0.57,-1.52 -0.18,-0.46 -0.34,-0.86 -0.48,-1.21 -0.14,-0.35 -0.25,-0.62 -0.33,-0.82 z"
       id="path8" />
    <path
       class="cls-1"
       d="m 135.35,244.06 c 0.45,0 0.81,-0.04 1.1,-0.11 0.29,-0.07 0.52,-0.17 0.7,-0.3 0.18,-0.13 0.3,-0.28 0.36,-0.46 0.07,-0.17 0.1,-0.37 0.1,-0.59 0,-0.46 -0.22,-0.84 -0.65,-1.14 -0.43,-0.3 -1.17,-0.63 -2.23,-0.98 -0.46,-0.16 -0.92,-0.35 -1.38,-0.56 -0.46,-0.21 -0.87,-0.47 -1.23,-0.79 -0.36,-0.32 -0.66,-0.7 -0.89,-1.15 -0.23,-0.45 -0.34,-1 -0.34,-1.65 0,-0.65 0.12,-1.23 0.36,-1.75 0.24,-0.52 0.59,-0.96 1.03,-1.33 0.45,-0.36 0.98,-0.64 1.62,-0.84 0.63,-0.2 1.35,-0.29 2.15,-0.29 0.94,0 1.76,0.1 2.45,0.3 0.69,0.2 1.25,0.42 1.7,0.67 l -0.91,2.49 c -0.39,-0.2 -0.83,-0.38 -1.31,-0.54 -0.48,-0.16 -1.06,-0.23 -1.73,-0.23 -0.76,0 -1.3,0.1 -1.63,0.31 -0.33,0.21 -0.5,0.53 -0.5,0.96 0,0.26 0.06,0.47 0.18,0.65 0.12,0.17 0.29,0.33 0.52,0.48 0.23,0.15 0.48,0.27 0.77,0.38 0.29,0.11 0.61,0.23 0.96,0.35 0.73,0.27 1.36,0.54 1.9,0.8 0.54,0.26 0.99,0.57 1.35,0.92 0.36,0.35 0.62,0.76 0.8,1.24 0.17,0.47 0.26,1.05 0.26,1.72 0,1.31 -0.46,2.32 -1.38,3.05 -0.92,0.72 -2.3,1.08 -4.15,1.08 -0.62,0 -1.18,-0.04 -1.68,-0.11 -0.5,-0.07 -0.94,-0.17 -1.33,-0.27 -0.38,-0.11 -0.72,-0.22 -0.99,-0.34 -0.28,-0.12 -0.51,-0.24 -0.7,-0.34 l 0.89,-2.51 c 0.42,0.23 0.93,0.44 1.55,0.62 0.61,0.18 1.37,0.27 2.26,0.27 z"
       id="path9" />
    <path
       class="cls-1"
       d="m 147.13,244.06 c 0.45,0 0.81,-0.04 1.1,-0.11 0.29,-0.07 0.52,-0.17 0.7,-0.3 0.18,-0.13 0.3,-0.28 0.36,-0.46 0.07,-0.17 0.1,-0.37 0.1,-0.59 0,-0.46 -0.22,-0.84 -0.65,-1.14 -0.43,-0.3 -1.17,-0.63 -2.23,-0.98 -0.46,-0.16 -0.92,-0.35 -1.38,-0.56 -0.46,-0.21 -0.87,-0.47 -1.23,-0.79 -0.36,-0.32 -0.66,-0.7 -0.89,-1.15 -0.23,-0.45 -0.34,-1 -0.34,-1.65 0,-0.65 0.12,-1.23 0.36,-1.75 0.24,-0.52 0.59,-0.96 1.03,-1.33 0.45,-0.36 0.98,-0.64 1.62,-0.84 0.63,-0.2 1.35,-0.29 2.15,-0.29 0.94,0 1.76,0.1 2.45,0.3 0.69,0.2 1.25,0.42 1.7,0.67 l -0.91,2.49 c -0.39,-0.2 -0.83,-0.38 -1.31,-0.54 -0.48,-0.16 -1.06,-0.23 -1.73,-0.23 -0.76,0 -1.3,0.1 -1.63,0.31 -0.33,0.21 -0.5,0.53 -0.5,0.96 0,0.26 0.06,0.47 0.18,0.65 0.12,0.17 0.29,0.33 0.52,0.48 0.23,0.15 0.48,0.27 0.77,0.38 0.29,0.11 0.61,0.23 0.96,0.35 0.73,0.27 1.36,0.54 1.9,0.8 0.54,0.26 0.99,0.57 1.35,0.92 0.36,0.35 0.62,0.76 0.8,1.24 0.17,0.47 0.26,1.05 0.26,1.72 0,1.31 -0.46,2.32 -1.38,3.05 -0.92,0.72 -2.3,1.08 -4.15,1.08 -0.62,0 -1.18,-0.04 -1.68,-0.11 -0.5,-0.07 -0.94,-0.17 -1.33,-0.27 -0.38,-0.11 -0.72,-0.22 -0.99,-0.34 -0.28,-0.12 -0.51,-0.24 -0.7,-0.34 l 0.89,-2.51 c 0.42,0.23 0.93,0.44 1.55,0.62 0.61,0.18 1.37,0.27 2.26,0.27 z"
       id="path10" />
    <path
       class="cls-1"
       d="m 155.08,246.47 v -14.03 h 9.47 v 2.65 h -6.32 v 2.75 h 5.61 v 2.59 h -5.61 v 3.38 h 6.78 v 2.65 h -9.94 z"
       id="path11" />
    <path
       class="cls-1"
       d="m 171.46,232.28 c 2.11,0 3.72,0.38 4.84,1.12 1.12,0.74 1.68,1.91 1.68,3.49 0,0.98 -0.23,1.78 -0.68,2.4 -0.45,0.62 -1.1,1.1 -1.95,1.45 0.28,0.35 0.58,0.75 0.89,1.2 0.31,0.45 0.62,0.92 0.92,1.42 0.3,0.49 0.6,1.01 0.88,1.54 0.28,0.53 0.55,1.06 0.79,1.57 h -3.53 c -0.26,-0.46 -0.52,-0.92 -0.78,-1.4 -0.26,-0.48 -0.53,-0.93 -0.81,-1.38 -0.28,-0.45 -0.55,-0.87 -0.82,-1.26 -0.27,-0.4 -0.54,-0.76 -0.81,-1.08 h -1.56 v 5.12 h -3.16 v -13.83 c 0.69,-0.13 1.4,-0.23 2.14,-0.28 0.74,-0.05 1.39,-0.08 1.97,-0.08 z m 0.18,2.69 c -0.23,0 -0.44,0 -0.62,0.02 -0.18,0.02 -0.35,0.03 -0.52,0.04 v 3.8 h 0.89 c 1.19,0 2.04,-0.15 2.55,-0.45 0.51,-0.3 0.77,-0.8 0.77,-1.52 0,-0.72 -0.26,-1.18 -0.78,-1.47 -0.52,-0.29 -1.29,-0.44 -2.3,-0.44 z"
       id="path12" />
    <path
       class="cls-1"
       d="m 184.68,244.06 c 0.45,0 0.81,-0.04 1.1,-0.11 0.29,-0.07 0.52,-0.17 0.7,-0.3 0.18,-0.13 0.3,-0.28 0.37,-0.46 0.07,-0.17 0.1,-0.37 0.1,-0.59 0,-0.46 -0.22,-0.84 -0.65,-1.14 -0.43,-0.3 -1.17,-0.63 -2.23,-0.98 -0.46,-0.16 -0.92,-0.35 -1.38,-0.56 -0.46,-0.21 -0.87,-0.47 -1.23,-0.79 -0.36,-0.32 -0.66,-0.7 -0.89,-1.15 -0.23,-0.45 -0.34,-1 -0.34,-1.65 0,-0.65 0.12,-1.23 0.36,-1.75 0.24,-0.52 0.59,-0.96 1.03,-1.33 0.45,-0.36 0.98,-0.64 1.62,-0.84 0.63,-0.2 1.35,-0.29 2.15,-0.29 0.94,0 1.76,0.1 2.45,0.3 0.69,0.2 1.25,0.42 1.7,0.67 l -0.91,2.49 c -0.39,-0.2 -0.83,-0.38 -1.31,-0.54 -0.48,-0.16 -1.06,-0.23 -1.73,-0.23 -0.76,0 -1.3,0.1 -1.63,0.31 -0.33,0.21 -0.5,0.53 -0.5,0.96 0,0.26 0.06,0.47 0.18,0.65 0.12,0.17 0.29,0.33 0.52,0.48 0.22,0.14 0.48,0.27 0.77,0.38 0.29,0.11 0.61,0.23 0.96,0.35 0.73,0.27 1.36,0.54 1.9,0.8 0.54,0.26 0.99,0.57 1.35,0.92 0.36,0.35 0.62,0.76 0.8,1.24 0.17,0.47 0.26,1.05 0.26,1.72 0,1.31 -0.46,2.32 -1.38,3.05 -0.92,0.72 -2.3,1.08 -4.15,1.08 -0.62,0 -1.18,-0.04 -1.68,-0.11 -0.5,-0.07 -0.94,-0.17 -1.33,-0.27 -0.38,-0.11 -0.72,-0.22 -0.99,-0.34 -0.28,-0.12 -0.51,-0.24 -0.7,-0.34 l 0.89,-2.51 c 0.42,0.23 0.93,0.44 1.55,0.62 0.61,0.18 1.37,0.27 2.26,0.27 z"
       id="path13" />
    <path
       class="cls-1"
       d="m 199.03,246.75 c -2.28,0 -4.02,-0.63 -5.21,-1.9 -1.19,-1.27 -1.79,-3.07 -1.79,-5.41 0,-1.16 0.18,-2.2 0.55,-3.11 0.36,-0.91 0.86,-1.68 1.5,-2.31 0.63,-0.63 1.39,-1.1 2.27,-1.43 0.88,-0.32 1.83,-0.49 2.85,-0.49 0.59,0 1.13,0.04 1.62,0.13 0.49,0.09 0.91,0.19 1.28,0.3 0.36,0.12 0.67,0.23 0.91,0.35 0.24,0.12 0.42,0.22 0.53,0.28 l -0.91,2.55 c -0.43,-0.23 -0.94,-0.42 -1.51,-0.59 -0.57,-0.16 -1.22,-0.24 -1.95,-0.24 -0.49,0 -0.96,0.08 -1.43,0.24 -0.47,0.16 -0.88,0.42 -1.24,0.78 -0.36,0.36 -0.64,0.82 -0.86,1.39 -0.22,0.57 -0.32,1.25 -0.32,2.06 0,0.65 0.07,1.25 0.21,1.81 0.14,0.56 0.37,1.04 0.69,1.45 0.32,0.41 0.73,0.73 1.25,0.96 0.52,0.23 1.13,0.35 1.86,0.35 0.46,0 0.87,-0.03 1.23,-0.08 0.36,-0.05 0.69,-0.12 0.97,-0.19 0.28,-0.07 0.53,-0.16 0.75,-0.25 0.22,-0.09 0.41,-0.18 0.59,-0.26 l 0.87,2.53 c -0.45,0.27 -1.07,0.51 -1.88,0.73 -0.81,0.21 -1.75,0.32 -2.81,0.32 z"
       id="path14" />
    <path
       class="cls-1"
       d="m 214.21,232.44 h 3.16 v 14.03 h -3.16 v -5.95 h -5.3 v 5.95 h -3.16 v -14.03 h 3.16 v 5.36 h 5.3 z"
       id="path15" />
    <path
       class="cls-1"
       d="m 229.98,243.76 v 2.71 h -9.37 v -14.03 h 3.16 v 11.32 z"
       id="path16" />
    <path
       class="cls-1"
       d="m 244.96,239.45 c 0,1.2 -0.18,2.26 -0.54,3.17 -0.36,0.91 -0.85,1.67 -1.47,2.29 -0.62,0.61 -1.36,1.08 -2.22,1.39 -0.86,0.31 -1.78,0.47 -2.76,0.47 -0.98,0 -1.86,-0.16 -2.71,-0.47 -0.85,-0.31 -1.59,-0.77 -2.23,-1.39 -0.63,-0.61 -1.13,-1.38 -1.5,-2.29 -0.37,-0.91 -0.55,-1.97 -0.55,-3.17 0,-1.2 0.19,-2.26 0.57,-3.17 0.38,-0.91 0.89,-1.68 1.53,-2.3 0.64,-0.62 1.38,-1.09 2.23,-1.4 0.84,-0.31 1.73,-0.46 2.66,-0.46 0.93,0 1.86,0.16 2.71,0.46 0.85,0.31 1.59,0.78 2.23,1.4 0.63,0.62 1.13,1.39 1.5,2.3 0.36,0.91 0.55,1.97 0.55,3.17 z m -10.71,0 c 0,0.69 0.08,1.31 0.25,1.86 0.17,0.55 0.41,1.03 0.73,1.43 0.32,0.4 0.71,0.71 1.16,0.92 0.46,0.22 0.98,0.32 1.58,0.32 0.6,0 1.1,-0.11 1.57,-0.32 0.47,-0.21 0.86,-0.52 1.17,-0.92 0.32,-0.4 0.56,-0.87 0.73,-1.43 0.17,-0.55 0.25,-1.17 0.25,-1.86 0,-0.69 -0.08,-1.31 -0.25,-1.87 -0.17,-0.56 -0.41,-1.04 -0.73,-1.44 -0.32,-0.4 -0.71,-0.71 -1.17,-0.92 -0.46,-0.21 -0.99,-0.32 -1.57,-0.32 -0.58,0 -1.12,0.11 -1.58,0.33 -0.46,0.22 -0.85,0.53 -1.16,0.93 -0.32,0.4 -0.56,0.88 -0.73,1.44 -0.17,0.56 -0.25,1.18 -0.25,1.85 z"
       id="path17" />
    <path
       class="cls-1"
       d="m 251.42,244.06 c 0.45,0 0.81,-0.04 1.1,-0.11 0.29,-0.07 0.52,-0.17 0.7,-0.3 0.17,-0.13 0.3,-0.28 0.36,-0.46 0.07,-0.17 0.1,-0.37 0.1,-0.59 0,-0.46 -0.22,-0.84 -0.65,-1.14 -0.43,-0.3 -1.17,-0.63 -2.23,-0.98 -0.46,-0.16 -0.92,-0.35 -1.38,-0.56 -0.46,-0.21 -0.87,-0.47 -1.24,-0.79 -0.37,-0.32 -0.66,-0.7 -0.89,-1.15 -0.23,-0.45 -0.34,-1 -0.34,-1.65 0,-0.65 0.12,-1.23 0.36,-1.75 0.24,-0.52 0.59,-0.96 1.03,-1.33 0.45,-0.36 0.98,-0.64 1.62,-0.84 0.63,-0.2 1.35,-0.29 2.15,-0.29 0.94,0 1.76,0.1 2.45,0.3 0.69,0.2 1.25,0.42 1.7,0.67 l -0.91,2.49 c -0.39,-0.2 -0.83,-0.38 -1.31,-0.54 -0.48,-0.16 -1.06,-0.23 -1.73,-0.23 -0.76,0 -1.3,0.1 -1.63,0.31 -0.33,0.21 -0.5,0.53 -0.5,0.96 0,0.26 0.06,0.47 0.18,0.65 0.12,0.17 0.29,0.33 0.52,0.48 0.23,0.15 0.48,0.27 0.77,0.38 0.29,0.11 0.61,0.23 0.96,0.35 0.73,0.27 1.36,0.54 1.9,0.8 0.54,0.26 0.99,0.57 1.35,0.92 0.36,0.35 0.62,0.76 0.8,1.24 0.18,0.47 0.26,1.05 0.26,1.72 0,1.31 -0.46,2.32 -1.38,3.05 -0.92,0.72 -2.3,1.08 -4.15,1.08 -0.62,0 -1.18,-0.04 -1.68,-0.11 -0.5,-0.07 -0.94,-0.17 -1.33,-0.27 -0.38,-0.11 -0.72,-0.22 -0.99,-0.34 -0.27,-0.12 -0.51,-0.24 -0.7,-0.34 l 0.89,-2.51 c 0.42,0.23 0.93,0.44 1.55,0.62 0.61,0.18 1.37,0.27 2.26,0.27 z"
       id="path18" />
    <path
       class="cls-1"
       d="m 263.2,244.06 c 0.45,0 0.81,-0.04 1.1,-0.11 0.29,-0.07 0.52,-0.17 0.7,-0.3 0.17,-0.13 0.3,-0.28 0.36,-0.46 0.07,-0.17 0.1,-0.37 0.1,-0.59 0,-0.46 -0.22,-0.84 -0.65,-1.14 -0.43,-0.3 -1.17,-0.63 -2.23,-0.98 -0.46,-0.16 -0.92,-0.35 -1.38,-0.56 -0.46,-0.21 -0.87,-0.47 -1.24,-0.79 -0.37,-0.32 -0.66,-0.7 -0.89,-1.15 -0.23,-0.45 -0.34,-1 -0.34,-1.65 0,-0.65 0.12,-1.23 0.36,-1.75 0.24,-0.52 0.59,-0.96 1.03,-1.33 0.45,-0.36 0.98,-0.64 1.62,-0.84 0.63,-0.2 1.35,-0.29 2.15,-0.29 0.94,0 1.76,0.1 2.45,0.3 0.69,0.2 1.25,0.42 1.7,0.67 l -0.91,2.49 c -0.39,-0.2 -0.83,-0.38 -1.31,-0.54 -0.48,-0.16 -1.06,-0.23 -1.73,-0.23 -0.76,0 -1.3,0.1 -1.63,0.31 -0.33,0.21 -0.5,0.53 -0.5,0.96 0,0.26 0.06,0.47 0.18,0.65 0.12,0.17 0.29,0.33 0.52,0.48 0.23,0.15 0.48,0.27 0.77,0.38 0.29,0.11 0.61,0.23 0.96,0.35 0.73,0.27 1.36,0.54 1.9,0.8 0.54,0.26 0.99,0.57 1.35,0.92 0.36,0.35 0.62,0.76 0.8,1.24 0.18,0.47 0.26,1.05 0.26,1.72 0,1.31 -0.46,2.32 -1.38,3.05 -0.92,0.72 -2.3,1.08 -4.15,1.08 -0.62,0 -1.18,-0.04 -1.68,-0.11 -0.5,-0.07 -0.94,-0.17 -1.33,-0.27 -0.38,-0.11 -0.72,-0.22 -0.99,-0.34 -0.27,-0.12 -0.51,-0.24 -0.7,-0.34 l 0.89,-2.51 c 0.42,0.23 0.93,0.44 1.55,0.62 0.61,0.18 1.37,0.27 2.26,0.27 z"
       id="path19" />
  </g>
  <path
     class="cls-1"
     d="M 88.20983,8.5480213 80.128533,21.165544 C 74.21833,19.282842 67.971671,18.071067 61.477432,17.578142 L 55.040327,0.33259699 48.615918,17.543911 C 42.108979,18.002606 35.830579,19.18015 29.875939,21.049159 L 21.87082,8.5480213 V 77.208427 c 0,0 0,0 0,0 0,16.875851 11.109404,31.608843 26.41499,35.025093 2.209184,0.49292 4.48185,0.74623 6.754517,0.74623 2.272666,0 4.545333,-0.25331 6.754517,-0.74623 C 77.100427,108.81727 88.20983,94.084278 88.20983,77.208427 v 0 z M 48.609569,77.283735 c -7.027493,2.827475 -14.372396,3.621633 -21.564941,2.341396 -0.05713,-0.801004 -0.09522,-3.224554 -0.09522,-3.224554 2.266318,0.335463 4.545333,0.52031 6.817999,0.52031 6.06256,0 12.09973,-1.198083 17.94645,-3.553171 10.25874,-4.128251 21.063428,-4.484252 31.411043,-1.074851 v 2.94386 C 71.704431,72.087479 59.839589,72.765252 48.603221,77.283735 Z m 34.521677,-14.93838 c -11.420467,-3.149243 -23.285309,-2.47147 -34.521677,2.04701 -7.059234,2.841167 -14.435878,3.628479 -21.660164,2.327703 v -3.210861 c 2.266318,0.335463 4.545333,0.52031 6.817999,0.52031 6.06256,0 12.09973,-1.198083 17.94645,-3.553168 10.265089,-4.12825 21.063428,-4.484252 31.411043,-1.074851 v 2.943857 z M 32.434276,34.830533 c 1.618799,-2.738475 1.745763,-6.147876 0.412635,-8.989043 4.380279,-1.266545 8.944656,-2.136011 13.648698,-2.615244 l -0.577689,1.554085 c -1.003021,2.676859 -0.761788,5.641258 0.647519,8.126424 l 7.256027,12.78183 c -0.06983,0.972159 -0.17775,2.526243 -0.28567,4.09402 -1.65054,0.492926 -3.294731,1.061159 -4.919878,1.718393 -7.059235,2.841168 -14.435879,3.628479 -21.660165,2.327704 v -9.735278 l 5.478523,-9.269737 z m -3.002713,54.769492 c 1.447396,0.136924 2.894793,0.212232 4.335841,0.212232 5.973685,0 11.928328,-1.163852 17.698869,-3.457324 C 50.177582,99.43115 48.850802,104.5521 47.92396,106.51695 39.576035,104.16186 32.853259,97.788065 29.431563,89.600025 Z m 32.731478,16.916925 c -0.977627,-2.07439 -2.393283,-7.667726 -3.751804,-22.387028 7.884502,-1.896394 15.959451,-1.649931 23.793167,0.75308 -2.54564,10.413051 -10.15082,18.847558 -20.041363,21.633948 z M 83.131246,49.453988 c -8.773255,-2.42355 -17.800438,-2.574166 -26.611782,-0.46554 -0.10792,-1.547239 -0.203143,-2.895938 -0.228536,-3.34094 l 7.236983,-12.740753 c 1.409306,-2.485166 1.650539,-5.449565 0.647519,-8.126424 l -0.564992,-1.506162 c 4.684993,0.499772 9.223978,1.396623 13.572516,2.67686 -1.275995,2.813782 -1.123637,6.168414 0.469769,8.872658 l 5.478523,9.269737 z"
     id="path20" />
</svg>
