<?xml version="1.0" encoding="UTF-8"?>
<svg id="Logo" xmlns="http://www.w3.org/2000/svg" viewBox="0 0 774.42 236.91">
  <defs>
    <style>
      .cls-1 {
        fill: #0f1f56;
        stroke-width: 0px;
      }
    </style>
  </defs>
  <path class="cls-1" d="m201.45,40.16l-12.73,18.43c-9.31-2.75-19.15-4.52-29.38-5.24l-10.14-25.19-10.12,25.14c-10.25.67-20.14,2.39-29.52,5.12l-12.61-18.26v100.29s0,0,0,0c0,24.65,17.5,46.17,41.61,51.16,3.48.72,7.06,1.09,10.64,1.09s7.16-.37,10.64-1.09c24.11-4.99,41.61-26.51,41.61-51.16h0V40.16Zm-62.38,100.4c-11.07,4.13-22.64,5.29-33.97,3.42-.09-1.17-.15-4.71-.15-4.71,3.57.49,7.16.76,10.74.76,9.55,0,19.06-1.75,28.27-5.19,16.16-6.03,33.18-6.55,49.48-1.57v4.3c-17.99-4.6-36.68-3.61-54.38,2.99Zm54.38-21.82c-17.99-4.6-36.68-3.61-54.38,2.99-11.12,4.15-22.74,5.3-34.12,3.4v-4.69c3.57.49,7.16.76,10.74.76,9.55,0,19.06-1.75,28.27-5.19,16.17-6.03,33.18-6.55,49.48-1.57v4.3Zm-79.86-40.19c2.55-4,2.75-8.98.65-13.13,6.9-1.85,14.09-3.12,21.5-3.82l-.91,2.27c-1.58,3.91-1.2,8.24,1.02,11.87l11.43,18.67c-.11,1.42-.28,3.69-.45,5.98-2.6.72-5.19,1.55-7.75,2.51-11.12,4.15-22.74,5.3-34.12,3.4v-14.22l8.63-13.54Zm-4.73,80c2.28.2,4.56.31,6.83.31,9.41,0,18.79-1.7,27.88-5.05-2.03,19.1-4.12,26.58-5.58,29.45-13.15-3.44-23.74-12.75-29.13-24.71Zm51.56,24.71c-1.54-3.03-3.77-11.2-5.91-32.7,12.42-2.77,25.14-2.41,37.48,1.1-4.01,15.21-15.99,27.53-31.57,31.6Zm33.03-83.35c-13.82-3.54-28.04-3.76-41.92-.68-.17-2.26-.32-4.23-.36-4.88l11.4-18.61c2.22-3.63,2.6-7.96,1.02-11.87l-.89-2.2c7.38.73,14.53,2.04,21.38,3.91-2.01,4.11-1.77,9.01.74,12.96l8.63,13.54v7.83Z"/>
  <g>
    <path class="cls-1" d="m262.92,94.72v6.94h-23.98v-35.9h8.08v28.96h15.9Z"/>
    <path class="cls-1" d="m268.1,101.66v-35.9h24.24v6.79h-16.16v7.04h14.35v6.63h-14.35v8.65h17.35v6.79h-25.43Z"/>
    <path class="cls-1" d="m317,71.98c-3.76,0-6.48,1.04-8.16,3.13-1.68,2.09-2.51,4.95-2.51,8.57,0,1.76.21,3.36.62,4.79.41,1.43,1.04,2.67,1.86,3.7.83,1.04,1.87,1.84,3.11,2.41s2.69.85,4.35.85c.9,0,1.67-.02,2.31-.05.64-.03,1.2-.1,1.68-.21v-12.48h8.08v17.77c-.97.38-2.52.79-4.66,1.22-2.14.43-4.78.65-7.93.65-2.69,0-5.14-.41-7.33-1.24s-4.07-2.04-5.62-3.63c-1.55-1.59-2.75-3.54-3.6-5.85-.85-2.31-1.27-4.96-1.27-7.93s.47-5.66,1.4-7.98c.93-2.31,2.21-4.27,3.83-5.88,1.62-1.61,3.53-2.82,5.72-3.65,2.19-.83,4.53-1.24,7.02-1.24,1.69,0,3.22.11,4.58.34,1.36.23,2.54.48,3.52.78.98.29,1.8.6,2.43.91.64.31,1.1.55,1.37.73l-2.33,6.48c-1.11-.59-2.38-1.1-3.81-1.53-1.43-.43-3-.65-4.69-.65Z"/>
    <path class="cls-1" d="m335.85,65.76h8.08v35.9h-8.08v-35.9Z"/>
    <path class="cls-1" d="m386.41,83.69c0,3.07-.46,5.78-1.37,8.11-.92,2.33-2.17,4.28-3.75,5.85-1.59,1.57-3.48,2.75-5.67,3.55s-4.55,1.19-7.07,1.19-4.77-.4-6.94-1.19-4.08-1.98-5.7-3.55c-1.62-1.57-2.9-3.52-3.83-5.85-.93-2.33-1.4-5.03-1.4-8.11s.48-5.78,1.45-8.11c.97-2.33,2.27-4.29,3.91-5.88,1.64-1.59,3.54-2.78,5.7-3.57,2.16-.79,4.43-1.19,6.81-1.19s4.77.4,6.94,1.19c2.18.79,4.07,1.99,5.7,3.57,1.62,1.59,2.9,3.55,3.83,5.88.93,2.33,1.4,5.03,1.4,8.11Zm-27.4,0c0,1.76.22,3.35.65,4.77.43,1.42,1.05,2.63,1.87,3.65.81,1.02,1.8,1.81,2.98,2.36,1.17.55,2.52.83,4.04.83s2.82-.28,4.01-.83c1.19-.55,2.19-1.34,3-2.36.81-1.02,1.43-2.24,1.87-3.65.43-1.42.65-3,.65-4.77s-.22-3.36-.65-4.79c-.43-1.43-1.05-2.66-1.87-3.68-.81-1.02-1.81-1.8-3-2.36-1.19-.55-2.53-.83-4.01-.83s-2.87.28-4.04.85c-1.17.57-2.17,1.36-2.98,2.38-.81,1.02-1.43,2.25-1.87,3.68-.43,1.43-.65,3.01-.65,4.74Z"/>
    <path class="cls-1" d="m417.23,101.66c-2.31-4.11-4.82-8.17-7.51-12.17-2.69-4.01-5.56-7.79-8.6-11.34v23.52h-7.98v-35.9h6.58c1.14,1.14,2.4,2.54,3.78,4.2,1.38,1.66,2.79,3.43,4.22,5.31,1.43,1.88,2.86,3.83,4.27,5.85,1.42,2.02,2.75,3.96,3.99,5.83v-21.19h8.03v35.9h-6.79Z"/>
    <path class="cls-1" d="m265.13,123.25c.41,1.42.87,3.01,1.37,4.79.5,1.78,1.03,3.62,1.6,5.52.57,1.9,1.15,3.8,1.73,5.7.59,1.9,1.16,3.66,1.71,5.28.45-1.76.91-3.68,1.38-5.75.47-2.07.91-4.21,1.33-6.42.42-2.21.82-4.41,1.22-6.6.4-2.19.77-4.31,1.12-6.35h8.39c-1.22,6.01-2.61,12.1-4.2,18.29-1.58,6.18-3.29,12.05-5.13,17.61h-7.39c-1.21-3.32-2.38-6.79-3.52-10.44-1.14-3.64-2.26-7.29-3.36-10.96-1.11,3.66-2.21,7.31-3.32,10.96-1.11,3.64-2.26,7.12-3.47,10.44h-7.39c-1.84-5.56-3.55-11.43-5.12-17.61-1.58-6.18-2.97-12.28-4.19-18.29h8.75c.35,2.04.73,4.15,1.15,6.35.42,2.19.85,4.39,1.3,6.6.45,2.21.91,4.35,1.38,6.42.47,2.07.95,3.99,1.43,5.75.62-1.69,1.23-3.49,1.82-5.39.59-1.9,1.16-3.8,1.71-5.7.55-1.9,1.06-3.73,1.53-5.49s.89-3.33,1.27-4.71h6.89Z"/>
    <path class="cls-1" d="m312.12,155.31c-.4-1.25-.83-2.53-1.29-3.84s-.92-2.62-1.37-3.93h-14.02c-.45,1.31-.91,2.62-1.36,3.94-.46,1.32-.88,2.59-1.27,3.83h-8.39c1.35-3.87,2.63-7.44,3.84-10.72,1.21-3.28,2.4-6.37,3.56-9.27,1.16-2.9,2.3-5.65,3.43-8.26,1.13-2.61,2.3-5.15,3.51-7.64h7.66c1.18,2.49,2.34,5.03,3.49,7.64,1.14,2.61,2.3,5.36,3.46,8.26,1.16,2.9,2.35,5.99,3.56,9.27,1.21,3.28,2.5,6.86,3.85,10.72h-8.66Zm-9.71-27.76c-.18.52-.44,1.23-.79,2.13-.35.9-.74,1.93-1.19,3.11-.44,1.18-.94,2.47-1.49,3.88s-1.1,2.9-1.67,4.45h10.27c-.55-1.56-1.08-3.04-1.6-4.46-.51-1.42-1-2.72-1.47-3.89-.46-1.18-.87-2.21-1.22-3.11-.35-.9-.63-1.6-.85-2.11Z"/>
    <path class="cls-1" d="m336.16,149.15c1.14,0,2.08-.09,2.82-.29.74-.19,1.34-.45,1.79-.78.45-.33.76-.72.93-1.17.17-.45.26-.95.26-1.5,0-1.17-.55-2.15-1.66-2.93-1.11-.78-3-1.61-5.7-2.51-1.17-.41-2.35-.89-3.52-1.42-1.17-.54-2.23-1.21-3.16-2.02-.93-.81-1.69-1.8-2.28-2.95-.59-1.16-.88-2.56-.88-4.22s.31-3.15.93-4.48c.62-1.33,1.5-2.46,2.64-3.39,1.14-.93,2.52-1.65,4.14-2.15,1.62-.5,3.45-.75,5.49-.75,2.42,0,4.51.26,6.27.78,1.76.52,3.21,1.09,4.35,1.71l-2.33,6.37c-1-.52-2.12-.98-3.34-1.37-1.23-.4-2.7-.6-4.43-.6-1.93,0-3.32.27-4.17.8-.85.54-1.27,1.36-1.27,2.46,0,.66.16,1.21.47,1.66.31.45.75.85,1.32,1.22.57.36,1.23.69,1.97.98.74.29,1.56.6,2.46.91,1.87.69,3.49,1.37,4.87,2.05s2.53,1.46,3.45,2.36c.91.9,1.6,1.95,2.05,3.16.45,1.21.67,2.68.67,4.4,0,3.35-1.17,5.95-3.52,7.8-2.35,1.85-5.89,2.77-10.62,2.77-1.59,0-3.02-.1-4.3-.29-1.28-.19-2.41-.42-3.39-.7-.98-.28-1.83-.57-2.54-.88-.71-.31-1.3-.6-1.79-.88l2.28-6.42c1.07.59,2.39,1.11,3.96,1.58,1.57.47,3.5.7,5.78.7Z"/>
    <path class="cls-1" d="m366.31,149.15c1.14,0,2.08-.09,2.82-.29.74-.19,1.34-.45,1.79-.78.45-.33.76-.72.93-1.17.17-.45.26-.95.26-1.5,0-1.17-.55-2.15-1.66-2.93-1.11-.78-3-1.61-5.7-2.51-1.17-.41-2.35-.89-3.52-1.42-1.17-.54-2.23-1.21-3.16-2.02-.93-.81-1.69-1.8-2.28-2.95-.59-1.16-.88-2.56-.88-4.22s.31-3.15.93-4.48c.62-1.33,1.5-2.46,2.64-3.39,1.14-.93,2.52-1.65,4.14-2.15,1.62-.5,3.45-.75,5.49-.75,2.42,0,4.51.26,6.27.78,1.76.52,3.21,1.09,4.35,1.71l-2.33,6.37c-1-.52-2.12-.98-3.34-1.37-1.23-.4-2.7-.6-4.43-.6-1.93,0-3.32.27-4.17.8-.85.54-1.27,1.36-1.27,2.46,0,.66.16,1.21.47,1.66.31.45.75.85,1.32,1.22.57.36,1.23.69,1.97.98.74.29,1.56.6,2.46.91,1.87.69,3.49,1.37,4.87,2.05s2.53,1.46,3.45,2.36c.91.9,1.6,1.95,2.05,3.16.45,1.21.67,2.68.67,4.4,0,3.35-1.17,5.95-3.52,7.8-2.35,1.85-5.89,2.77-10.62,2.77-1.59,0-3.02-.1-4.3-.29-1.28-.19-2.41-.42-3.39-.7-.98-.28-1.83-.57-2.54-.88-.71-.31-1.3-.6-1.79-.88l2.28-6.42c1.07.59,2.39,1.11,3.96,1.58,1.57.47,3.5.7,5.78.7Z"/>
    <path class="cls-1" d="m386.67,155.31v-35.9h24.24v6.79h-16.16v7.04h14.35v6.63h-14.35v8.65h17.35v6.79h-25.43Z"/>
    <path class="cls-1" d="m428.57,119c5.39,0,9.51.96,12.38,2.88,2.87,1.92,4.3,4.9,4.3,8.94,0,2.52-.58,4.57-1.74,6.14-1.16,1.57-2.82,2.81-5,3.7.72.9,1.48,1.93,2.28,3.08.79,1.16,1.58,2.37,2.36,3.63.78,1.26,1.53,2.57,2.25,3.94.73,1.36,1.4,2.7,2.02,4.01h-9.03c-.66-1.17-1.33-2.37-2-3.57-.68-1.21-1.37-2.38-2.08-3.52s-1.41-2.22-2.11-3.24c-.69-1.02-1.39-1.94-2.08-2.77h-3.99v13.11h-8.08v-35.38c1.76-.34,3.58-.59,5.47-.73,1.88-.14,3.56-.21,5.05-.21Zm.47,6.89c-.59,0-1.11.02-1.58.05-.47.03-.91.07-1.32.1v9.74h2.28c3.04,0,5.21-.38,6.53-1.14,1.31-.76,1.97-2.05,1.97-3.89s-.67-3.01-1.99-3.76c-1.33-.74-3.29-1.11-5.88-1.11Z"/>
    <path class="cls-1" d="m462.4,149.15c1.14,0,2.08-.09,2.82-.29.74-.19,1.34-.45,1.79-.78.45-.33.76-.72.93-1.17.17-.45.26-.95.26-1.5,0-1.17-.55-2.15-1.66-2.93-1.11-.78-3-1.61-5.7-2.51-1.17-.41-2.35-.89-3.52-1.42-1.17-.54-2.23-1.21-3.16-2.02-.93-.81-1.69-1.8-2.28-2.95-.59-1.16-.88-2.56-.88-4.22s.31-3.15.93-4.48c.62-1.33,1.5-2.46,2.64-3.39,1.14-.93,2.52-1.65,4.14-2.15,1.62-.5,3.45-.75,5.49-.75,2.42,0,4.51.26,6.27.78,1.76.52,3.21,1.09,4.35,1.71l-2.33,6.37c-1-.52-2.12-.98-3.34-1.37-1.23-.4-2.7-.6-4.43-.6-1.93,0-3.32.27-4.17.8-.85.54-1.27,1.36-1.27,2.46,0,.66.16,1.21.47,1.66.31.45.75.85,1.32,1.22.57.36,1.23.69,1.97.98.74.29,1.56.6,2.46.91,1.87.69,3.49,1.37,4.87,2.05s2.53,1.46,3.45,2.36c.91.9,1.6,1.95,2.05,3.16.45,1.21.67,2.68.67,4.4,0,3.35-1.17,5.95-3.52,7.8-2.35,1.85-5.89,2.77-10.62,2.77-1.59,0-3.02-.1-4.3-.29-1.28-.19-2.41-.42-3.39-.7-.98-.28-1.83-.57-2.54-.88-.71-.31-1.3-.6-1.79-.88l2.28-6.42c1.07.59,2.39,1.11,3.96,1.58,1.57.47,3.5.7,5.78.7Z"/>
    <path class="cls-1" d="m499.12,156.04c-5.84,0-10.28-1.62-13.34-4.87-3.06-3.25-4.58-7.86-4.58-13.83,0-2.97.47-5.62,1.4-7.95.93-2.33,2.21-4.3,3.83-5.91,1.62-1.61,3.56-2.82,5.8-3.65,2.25-.83,4.68-1.24,7.3-1.24,1.52,0,2.9.11,4.14.34,1.24.23,2.33.48,3.26.78.93.29,1.71.6,2.33.91.62.31,1.07.55,1.35.73l-2.33,6.53c-1.11-.59-2.39-1.09-3.86-1.5-1.47-.41-3.13-.62-5-.62-1.24,0-2.46.21-3.65.62-1.19.41-2.25,1.08-3.16,1.99-.92.92-1.65,2.1-2.2,3.55-.55,1.45-.83,3.21-.83,5.28,0,1.66.18,3.2.54,4.64.36,1.43.95,2.67,1.76,3.7.81,1.04,1.87,1.86,3.19,2.46,1.31.6,2.9.91,4.77.91,1.17,0,2.23-.07,3.16-.21.93-.14,1.76-.3,2.49-.49.73-.19,1.36-.41,1.92-.65.55-.24,1.05-.47,1.5-.67l2.23,6.48c-1.14.69-2.75,1.31-4.82,1.86-2.07.55-4.47.83-7.2.83Z"/>
    <path class="cls-1" d="m537.97,119.41h8.08v35.9h-8.08v-15.23h-13.57v15.23h-8.08v-35.9h8.08v13.73h13.57v-13.73Z"/>
    <path class="cls-1" d="m578.32,148.37v6.94h-23.98v-35.9h8.08v28.96h15.9Z"/>
    <path class="cls-1" d="m616.66,137.33c0,3.07-.46,5.78-1.37,8.11-.92,2.33-2.17,4.28-3.75,5.85-1.59,1.57-3.48,2.75-5.67,3.55-2.19.79-4.55,1.19-7.07,1.19s-4.77-.4-6.94-1.19c-2.18-.79-4.08-1.98-5.7-3.55-1.62-1.57-2.9-3.52-3.83-5.85-.93-2.33-1.4-5.03-1.4-8.11s.48-5.78,1.45-8.11c.97-2.33,2.27-4.29,3.91-5.88,1.64-1.59,3.54-2.78,5.7-3.57,2.16-.79,4.43-1.19,6.81-1.19s4.77.4,6.94,1.19c2.18.79,4.07,1.99,5.7,3.57,1.62,1.59,2.9,3.55,3.83,5.88.93,2.33,1.4,5.03,1.4,8.11Zm-27.4,0c0,1.76.22,3.35.65,4.77.43,1.42,1.05,2.63,1.87,3.65.81,1.02,1.8,1.81,2.98,2.36,1.17.55,2.52.83,4.04.83s2.82-.28,4.01-.83c1.19-.55,2.19-1.34,3-2.36.81-1.02,1.43-2.24,1.87-3.65.43-1.42.65-3,.65-4.77s-.22-3.36-.65-4.79c-.43-1.43-1.05-2.66-1.87-3.68-.81-1.02-1.81-1.8-3-2.36-1.19-.55-2.53-.83-4.01-.83s-2.87.28-4.04.85c-1.17.57-2.17,1.36-2.98,2.38-.81,1.02-1.43,2.25-1.87,3.68-.43,1.43-.65,3.01-.65,4.74Z"/>
    <path class="cls-1" d="m633.18,149.15c1.14,0,2.08-.09,2.82-.29.74-.19,1.34-.45,1.79-.78.45-.33.76-.72.93-1.17.17-.45.26-.95.26-1.5,0-1.17-.55-2.15-1.66-2.93-1.11-.78-3-1.61-5.7-2.51-1.17-.41-2.35-.89-3.52-1.42-1.17-.54-2.23-1.21-3.16-2.02-.93-.81-1.69-1.8-2.28-2.95-.59-1.16-.88-2.56-.88-4.22s.31-3.15.93-4.48c.62-1.33,1.5-2.46,2.64-3.39,1.14-.93,2.52-1.65,4.14-2.15,1.62-.5,3.45-.75,5.49-.75,2.42,0,4.51.26,6.27.78,1.76.52,3.21,1.09,4.35,1.71l-2.33,6.37c-1-.52-2.12-.98-3.34-1.37-1.23-.4-2.7-.6-4.43-.6-1.93,0-3.32.27-4.17.8-.85.54-1.27,1.36-1.27,2.46,0,.66.16,1.21.47,1.66.31.45.75.85,1.32,1.22.57.36,1.23.69,1.97.98.74.29,1.56.6,2.46.91,1.87.69,3.49,1.37,4.87,2.05s2.53,1.46,3.45,2.36c.91.9,1.6,1.95,2.05,3.16.45,1.21.67,2.68.67,4.4,0,3.35-1.17,5.95-3.52,7.8-2.35,1.85-5.89,2.77-10.62,2.77-1.59,0-3.02-.1-4.3-.29-1.28-.19-2.41-.42-3.39-.7-.98-.28-1.83-.57-2.54-.88-.71-.31-1.3-.6-1.79-.88l2.28-6.42c1.07.59,2.39,1.11,3.96,1.58,1.57.47,3.5.7,5.78.7Z"/>
    <path class="cls-1" d="m663.33,149.15c1.14,0,2.08-.09,2.82-.29.74-.19,1.34-.45,1.79-.78.45-.33.76-.72.93-1.17.17-.45.26-.95.26-1.5,0-1.17-.55-2.15-1.66-2.93-1.11-.78-3-1.61-5.7-2.51-1.17-.41-2.35-.89-3.52-1.42-1.17-.54-2.23-1.21-3.16-2.02-.93-.81-1.69-1.8-2.28-2.95-.59-1.16-.88-2.56-.88-4.22s.31-3.15.93-4.48c.62-1.33,1.5-2.46,2.64-3.39,1.14-.93,2.52-1.65,4.14-2.15,1.62-.5,3.45-.75,5.49-.75,2.42,0,4.51.26,6.27.78,1.76.52,3.21,1.09,4.35,1.71l-2.33,6.37c-1-.52-2.12-.98-3.34-1.37-1.23-.4-2.7-.6-4.43-.6-1.93,0-3.32.27-4.17.8-.85.54-1.27,1.36-1.27,2.46,0,.66.16,1.21.47,1.66.31.45.75.85,1.32,1.22.57.36,1.23.69,1.97.98.74.29,1.56.6,2.46.91,1.87.69,3.49,1.37,4.87,2.05s2.53,1.46,3.45,2.36c.91.9,1.6,1.95,2.05,3.16.45,1.21.67,2.68.67,4.4,0,3.35-1.17,5.95-3.52,7.8-2.35,1.85-5.89,2.77-10.62,2.77-1.59,0-3.02-.1-4.3-.29-1.28-.19-2.41-.42-3.39-.7-.98-.28-1.83-.57-2.54-.88-.71-.31-1.3-.6-1.79-.88l2.28-6.42c1.07.59,2.39,1.11,3.96,1.58,1.57.47,3.5.7,5.78.7Z"/>
  </g>
</svg>