<?xml version="1.0" encoding="UTF-8" standalone="no"?>
<svg
   id="Logo"
   viewBox="0 0 582.00002 165"
   version="1.1"
   sodipodi:docname="logo_textrechts_borderless.svg"
   width="582"
   height="165"
   inkscape:version="1.3.2 (091e20e, 2023-11-25, custom)"
   xmlns:inkscape="http://www.inkscape.org/namespaces/inkscape"
   xmlns:sodipodi="http://sodipodi.sourceforge.net/DTD/sodipodi-0.dtd"
   xmlns="http://www.w3.org/2000/svg"
   xmlns:svg="http://www.w3.org/2000/svg">
  <sodipodi:namedview
     id="namedview20"
     pagecolor="#ffffff"
     bordercolor="#666666"
     borderopacity="1.0"
     inkscape:showpageshadow="2"
     inkscape:pageopacity="0.0"
     inkscape:pagecheckerboard="0"
     inkscape:deskcolor="#d1d1d1"
     inkscape:zoom="1.2260789"
     inkscape:cx="280.16142"
     inkscape:cy="77.074975"
     inkscape:window-width="2560"
     inkscape:window-height="1377"
     inkscape:window-x="2552"
     inkscape:window-y="-8"
     inkscape:window-maximized="1"
     inkscape:current-layer="Logo" />
  <defs
     id="defs1">
    <style
       id="style1">
      .cls-1 {
        fill: #0f1f56;
        stroke-width: 0px;
      }
    </style>
  </defs>
  <path
     class="cls-1"
     d="M 105.45,12.16 92.72,30.59 C 83.41,27.84 73.57,26.07 63.34,25.35 L 53.2,0.16 43.08,25.3 C 32.83,25.97 22.94,27.69 13.56,30.42 L 0.95,12.16 v 100.29 c 0,0 0,0 0,0 0,24.65 17.5,46.17 41.61,51.16 3.48,0.72 7.06,1.09 10.64,1.09 3.58,0 7.16,-0.37 10.64,-1.09 24.11,-4.99 41.61,-26.51 41.61,-51.16 v 0 z m -62.38,100.4 c -11.07,4.13 -22.64,5.29 -33.97,3.42 -0.09,-1.17 -0.15,-4.71 -0.15,-4.71 3.57,0.49 7.16,0.76 10.74,0.76 9.55,0 19.06,-1.75 28.27,-5.19 16.16,-6.03 33.18,-6.55 49.48,-1.57 v 4.3 c -17.99,-4.6 -36.68,-3.61 -54.38,2.99 z M 97.45,90.74 c -17.99,-4.6 -36.68,-3.61 -54.38,2.99 -11.12,4.15 -22.74,5.3 -34.12,3.4 v -4.69 c 3.57,0.49 7.16,0.76 10.74,0.76 9.55,0 19.06,-1.75 28.27,-5.19 16.17,-6.03 33.18,-6.55 49.48,-1.57 v 4.3 z M 17.59,50.55 c 2.55,-4 2.75,-8.98 0.65,-13.13 6.9,-1.85 14.09,-3.12 21.5,-3.82 l -0.91,2.27 c -1.58,3.91 -1.2,8.24 1.02,11.87 l 11.43,18.67 c -0.11,1.42 -0.28,3.69 -0.45,5.98 -2.6,0.72 -5.19,1.55 -7.75,2.51 -11.12,4.15 -22.74,5.3 -34.12,3.4 V 64.08 l 8.63,-13.54 z m -4.73,80 c 2.28,0.2 4.56,0.31 6.83,0.31 9.41,0 18.79,-1.7 27.88,-5.05 -2.03,19.1 -4.12,26.58 -5.58,29.45 -13.15,-3.44 -23.74,-12.75 -29.13,-24.71 z m 51.56,24.71 c -1.54,-3.03 -3.77,-11.2 -5.91,-32.7 12.42,-2.77 25.14,-2.41 37.48,1.1 -4.01,15.21 -15.99,27.53 -31.57,31.6 z M 97.45,71.91 C 83.63,68.37 69.41,68.15 55.53,71.23 55.36,68.97 55.21,67 55.17,66.35 l 11.4,-18.61 c 2.22,-3.63 2.6,-7.96 1.02,-11.87 l -0.89,-2.2 c 7.38,0.73 14.53,2.04 21.38,3.91 -2.01,4.11 -1.77,9.01 0.74,12.96 l 8.63,13.54 z"
     id="path1" />
  <g
     id="g20"
     transform="translate(-96,-28)">
    <path
       class="cls-1"
       d="m 262.92,94.72 v 6.94 h -23.98 v -35.9 h 8.08 v 28.96 z"
       id="path2" />
    <path
       class="cls-1"
       d="m 268.1,101.66 v -35.9 h 24.24 v 6.79 h -16.16 v 7.04 h 14.35 v 6.63 h -14.35 v 8.65 h 17.35 v 6.79 z"
       id="path3" />
    <path
       class="cls-1"
       d="m 317,71.98 c -3.76,0 -6.48,1.04 -8.16,3.13 -1.68,2.09 -2.51,4.95 -2.51,8.57 0,1.76 0.21,3.36 0.62,4.79 0.41,1.43 1.04,2.67 1.86,3.7 0.83,1.04 1.87,1.84 3.11,2.41 1.24,0.57 2.69,0.85 4.35,0.85 0.9,0 1.67,-0.02 2.31,-0.05 0.64,-0.03 1.2,-0.1 1.68,-0.21 V 82.69 h 8.08 v 17.77 c -0.97,0.38 -2.52,0.79 -4.66,1.22 -2.14,0.43 -4.78,0.65 -7.93,0.65 -2.69,0 -5.14,-0.41 -7.33,-1.24 -2.19,-0.83 -4.07,-2.04 -5.62,-3.63 -1.55,-1.59 -2.75,-3.54 -3.6,-5.85 -0.85,-2.31 -1.27,-4.96 -1.27,-7.93 0,-2.97 0.47,-5.66 1.4,-7.98 0.93,-2.31 2.21,-4.27 3.83,-5.88 1.62,-1.61 3.53,-2.82 5.72,-3.65 2.19,-0.83 4.53,-1.24 7.02,-1.24 1.69,0 3.22,0.11 4.58,0.34 1.36,0.23 2.54,0.48 3.52,0.78 0.98,0.29 1.8,0.6 2.43,0.91 0.64,0.31 1.1,0.55 1.37,0.73 l -2.33,6.48 c -1.11,-0.59 -2.38,-1.1 -3.81,-1.53 -1.43,-0.43 -3,-0.65 -4.69,-0.65 z"
       id="path4" />
    <path
       class="cls-1"
       d="m 335.85,65.76 h 8.08 v 35.9 h -8.08 z"
       id="path5" />
    <path
       class="cls-1"
       d="m 386.41,83.69 c 0,3.07 -0.46,5.78 -1.37,8.11 -0.92,2.33 -2.17,4.28 -3.75,5.85 -1.59,1.57 -3.48,2.75 -5.67,3.55 -2.19,0.8 -4.55,1.19 -7.07,1.19 -2.52,0 -4.77,-0.4 -6.94,-1.19 -2.17,-0.79 -4.08,-1.98 -5.7,-3.55 -1.62,-1.57 -2.9,-3.52 -3.83,-5.85 -0.93,-2.33 -1.4,-5.03 -1.4,-8.11 0,-3.08 0.48,-5.78 1.45,-8.11 0.97,-2.33 2.27,-4.29 3.91,-5.88 1.64,-1.59 3.54,-2.78 5.7,-3.57 2.16,-0.79 4.43,-1.19 6.81,-1.19 2.38,0 4.77,0.4 6.94,1.19 2.18,0.79 4.07,1.99 5.7,3.57 1.62,1.59 2.9,3.55 3.83,5.88 0.93,2.33 1.4,5.03 1.4,8.11 z m -27.4,0 c 0,1.76 0.22,3.35 0.65,4.77 0.43,1.42 1.05,2.63 1.87,3.65 0.81,1.02 1.8,1.81 2.98,2.36 1.17,0.55 2.52,0.83 4.04,0.83 1.52,0 2.82,-0.28 4.01,-0.83 1.19,-0.55 2.19,-1.34 3,-2.36 0.81,-1.02 1.43,-2.24 1.87,-3.65 0.43,-1.42 0.65,-3 0.65,-4.77 0,-1.77 -0.22,-3.36 -0.65,-4.79 -0.43,-1.43 -1.05,-2.66 -1.87,-3.68 -0.81,-1.02 -1.81,-1.8 -3,-2.36 -1.19,-0.55 -2.53,-0.83 -4.01,-0.83 -1.48,0 -2.87,0.28 -4.04,0.85 -1.17,0.57 -2.17,1.36 -2.98,2.38 -0.81,1.02 -1.43,2.25 -1.87,3.68 -0.43,1.43 -0.65,3.01 -0.65,4.74 z"
       id="path6" />
    <path
       class="cls-1"
       d="m 417.23,101.66 c -2.31,-4.11 -4.82,-8.17 -7.51,-12.17 -2.69,-4.01 -5.56,-7.79 -8.6,-11.34 v 23.52 h -7.98 v -35.9 h 6.58 c 1.14,1.14 2.4,2.54 3.78,4.2 1.38,1.66 2.79,3.43 4.22,5.31 1.43,1.88 2.86,3.83 4.27,5.85 1.42,2.02 2.75,3.96 3.99,5.83 V 65.77 h 8.03 v 35.9 h -6.79 z"
       id="path7" />
    <path
       class="cls-1"
       d="m 265.13,123.25 c 0.41,1.42 0.87,3.01 1.37,4.79 0.5,1.78 1.03,3.62 1.6,5.52 0.57,1.9 1.15,3.8 1.73,5.7 0.59,1.9 1.16,3.66 1.71,5.28 0.45,-1.76 0.91,-3.68 1.38,-5.75 0.47,-2.07 0.91,-4.21 1.33,-6.42 0.42,-2.21 0.82,-4.41 1.22,-6.6 0.4,-2.19 0.77,-4.31 1.12,-6.35 h 8.39 c -1.22,6.01 -2.61,12.1 -4.2,18.29 -1.58,6.18 -3.29,12.05 -5.13,17.61 h -7.39 c -1.21,-3.32 -2.38,-6.79 -3.52,-10.44 -1.14,-3.64 -2.26,-7.29 -3.36,-10.96 -1.11,3.66 -2.21,7.31 -3.32,10.96 -1.11,3.64 -2.26,7.12 -3.47,10.44 h -7.39 c -1.84,-5.56 -3.55,-11.43 -5.12,-17.61 -1.58,-6.18 -2.97,-12.28 -4.19,-18.29 h 8.75 c 0.35,2.04 0.73,4.15 1.15,6.35 0.42,2.19 0.85,4.39 1.3,6.6 0.45,2.21 0.91,4.35 1.38,6.42 0.47,2.07 0.95,3.99 1.43,5.75 0.62,-1.69 1.23,-3.49 1.82,-5.39 0.59,-1.9 1.16,-3.8 1.71,-5.7 0.55,-1.9 1.06,-3.73 1.53,-5.49 0.47,-1.76 0.89,-3.33 1.27,-4.71 h 6.89 z"
       id="path8" />
    <path
       class="cls-1"
       d="m 312.12,155.31 c -0.4,-1.25 -0.83,-2.53 -1.29,-3.84 -0.46,-1.31 -0.92,-2.62 -1.37,-3.93 h -14.02 c -0.45,1.31 -0.91,2.62 -1.36,3.94 -0.46,1.32 -0.88,2.59 -1.27,3.83 h -8.39 c 1.35,-3.87 2.63,-7.44 3.84,-10.72 1.21,-3.28 2.4,-6.37 3.56,-9.27 1.16,-2.9 2.3,-5.65 3.43,-8.26 1.13,-2.61 2.3,-5.15 3.51,-7.64 h 7.66 c 1.18,2.49 2.34,5.03 3.49,7.64 1.14,2.61 2.3,5.36 3.46,8.26 1.16,2.9 2.35,5.99 3.56,9.27 1.21,3.28 2.5,6.86 3.85,10.72 z m -9.71,-27.76 c -0.18,0.52 -0.44,1.23 -0.79,2.13 -0.35,0.9 -0.74,1.93 -1.19,3.11 -0.44,1.18 -0.94,2.47 -1.49,3.88 -0.55,1.41 -1.1,2.9 -1.67,4.45 h 10.27 c -0.55,-1.56 -1.08,-3.04 -1.6,-4.46 -0.51,-1.42 -1,-2.72 -1.47,-3.89 -0.46,-1.18 -0.87,-2.21 -1.22,-3.11 -0.35,-0.9 -0.63,-1.6 -0.85,-2.11 z"
       id="path9" />
    <path
       class="cls-1"
       d="m 336.16,149.15 c 1.14,0 2.08,-0.09 2.82,-0.29 0.74,-0.19 1.34,-0.45 1.79,-0.78 0.45,-0.33 0.76,-0.72 0.93,-1.17 0.17,-0.45 0.26,-0.95 0.26,-1.5 0,-1.17 -0.55,-2.15 -1.66,-2.93 -1.11,-0.78 -3,-1.61 -5.7,-2.51 -1.17,-0.41 -2.35,-0.89 -3.52,-1.42 -1.17,-0.54 -2.23,-1.21 -3.16,-2.02 -0.93,-0.81 -1.69,-1.8 -2.28,-2.95 -0.59,-1.16 -0.88,-2.56 -0.88,-4.22 0,-1.66 0.31,-3.15 0.93,-4.48 0.62,-1.33 1.5,-2.46 2.64,-3.39 1.14,-0.93 2.52,-1.65 4.14,-2.15 1.62,-0.5 3.45,-0.75 5.49,-0.75 2.42,0 4.51,0.26 6.27,0.78 1.76,0.52 3.21,1.09 4.35,1.71 l -2.33,6.37 c -1,-0.52 -2.12,-0.98 -3.34,-1.37 -1.23,-0.4 -2.7,-0.6 -4.43,-0.6 -1.93,0 -3.32,0.27 -4.17,0.8 -0.85,0.54 -1.27,1.36 -1.27,2.46 0,0.66 0.16,1.21 0.47,1.66 0.31,0.45 0.75,0.85 1.32,1.22 0.57,0.36 1.23,0.69 1.97,0.98 0.74,0.29 1.56,0.6 2.46,0.91 1.87,0.69 3.49,1.37 4.87,2.05 1.38,0.68 2.53,1.46 3.45,2.36 0.91,0.9 1.6,1.95 2.05,3.16 0.45,1.21 0.67,2.68 0.67,4.4 0,3.35 -1.17,5.95 -3.52,7.8 -2.35,1.85 -5.89,2.77 -10.62,2.77 -1.59,0 -3.02,-0.1 -4.3,-0.29 -1.28,-0.19 -2.41,-0.42 -3.39,-0.7 -0.98,-0.28 -1.83,-0.57 -2.54,-0.88 -0.71,-0.31 -1.3,-0.6 -1.79,-0.88 l 2.28,-6.42 c 1.07,0.59 2.39,1.11 3.96,1.58 1.57,0.47 3.5,0.7 5.78,0.7 z"
       id="path10" />
    <path
       class="cls-1"
       d="m 366.31,149.15 c 1.14,0 2.08,-0.09 2.82,-0.29 0.74,-0.19 1.34,-0.45 1.79,-0.78 0.45,-0.33 0.76,-0.72 0.93,-1.17 0.17,-0.45 0.26,-0.95 0.26,-1.5 0,-1.17 -0.55,-2.15 -1.66,-2.93 -1.11,-0.78 -3,-1.61 -5.7,-2.51 -1.17,-0.41 -2.35,-0.89 -3.52,-1.42 -1.17,-0.54 -2.23,-1.21 -3.16,-2.02 -0.93,-0.81 -1.69,-1.8 -2.28,-2.95 -0.59,-1.16 -0.88,-2.56 -0.88,-4.22 0,-1.66 0.31,-3.15 0.93,-4.48 0.62,-1.33 1.5,-2.46 2.64,-3.39 1.14,-0.93 2.52,-1.65 4.14,-2.15 1.62,-0.5 3.45,-0.75 5.49,-0.75 2.42,0 4.51,0.26 6.27,0.78 1.76,0.52 3.21,1.09 4.35,1.71 l -2.33,6.37 c -1,-0.52 -2.12,-0.98 -3.34,-1.37 -1.23,-0.4 -2.7,-0.6 -4.43,-0.6 -1.93,0 -3.32,0.27 -4.17,0.8 -0.85,0.54 -1.27,1.36 -1.27,2.46 0,0.66 0.16,1.21 0.47,1.66 0.31,0.45 0.75,0.85 1.32,1.22 0.57,0.36 1.23,0.69 1.97,0.98 0.74,0.29 1.56,0.6 2.46,0.91 1.87,0.69 3.49,1.37 4.87,2.05 1.38,0.68 2.53,1.46 3.45,2.36 0.91,0.9 1.6,1.95 2.05,3.16 0.45,1.21 0.67,2.68 0.67,4.4 0,3.35 -1.17,5.95 -3.52,7.8 -2.35,1.85 -5.89,2.77 -10.62,2.77 -1.59,0 -3.02,-0.1 -4.3,-0.29 -1.28,-0.19 -2.41,-0.42 -3.39,-0.7 -0.98,-0.28 -1.83,-0.57 -2.54,-0.88 -0.71,-0.31 -1.3,-0.6 -1.79,-0.88 l 2.28,-6.42 c 1.07,0.59 2.39,1.11 3.96,1.58 1.57,0.47 3.5,0.7 5.78,0.7 z"
       id="path11" />
    <path
       class="cls-1"
       d="m 386.67,155.31 v -35.9 h 24.24 v 6.79 h -16.16 v 7.04 h 14.35 v 6.63 h -14.35 v 8.65 h 17.35 v 6.79 z"
       id="path12" />
    <path
       class="cls-1"
       d="m 428.57,119 c 5.39,0 9.51,0.96 12.38,2.88 2.87,1.92 4.3,4.9 4.3,8.94 0,2.52 -0.58,4.57 -1.74,6.14 -1.16,1.57 -2.82,2.81 -5,3.7 0.72,0.9 1.48,1.93 2.28,3.08 0.79,1.16 1.58,2.37 2.36,3.63 0.78,1.26 1.53,2.57 2.25,3.94 0.73,1.36 1.4,2.7 2.02,4.01 h -9.03 c -0.66,-1.17 -1.33,-2.37 -2,-3.57 -0.68,-1.21 -1.37,-2.38 -2.08,-3.52 -0.71,-1.14 -1.41,-2.22 -2.11,-3.24 -0.69,-1.02 -1.39,-1.94 -2.08,-2.77 h -3.99 v 13.11 h -8.08 v -35.38 c 1.76,-0.34 3.58,-0.59 5.47,-0.73 1.88,-0.14 3.56,-0.21 5.05,-0.21 z m 0.47,6.89 c -0.59,0 -1.11,0.02 -1.58,0.05 -0.47,0.03 -0.91,0.07 -1.32,0.1 v 9.74 h 2.28 c 3.04,0 5.21,-0.38 6.53,-1.14 1.31,-0.76 1.97,-2.05 1.97,-3.89 0,-1.84 -0.67,-3.01 -1.99,-3.76 -1.33,-0.74 -3.29,-1.11 -5.88,-1.11 z"
       id="path13" />
    <path
       class="cls-1"
       d="m 462.4,149.15 c 1.14,0 2.08,-0.09 2.82,-0.29 0.74,-0.19 1.34,-0.45 1.79,-0.78 0.45,-0.33 0.76,-0.72 0.93,-1.17 0.17,-0.45 0.26,-0.95 0.26,-1.5 0,-1.17 -0.55,-2.15 -1.66,-2.93 -1.11,-0.78 -3,-1.61 -5.7,-2.51 -1.17,-0.41 -2.35,-0.89 -3.52,-1.42 -1.17,-0.54 -2.23,-1.21 -3.16,-2.02 -0.93,-0.81 -1.69,-1.8 -2.28,-2.95 -0.59,-1.16 -0.88,-2.56 -0.88,-4.22 0,-1.66 0.31,-3.15 0.93,-4.48 0.62,-1.33 1.5,-2.46 2.64,-3.39 1.14,-0.93 2.52,-1.65 4.14,-2.15 1.62,-0.5 3.45,-0.75 5.49,-0.75 2.42,0 4.51,0.26 6.27,0.78 1.76,0.52 3.21,1.09 4.35,1.71 l -2.33,6.37 c -1,-0.52 -2.12,-0.98 -3.34,-1.37 -1.23,-0.4 -2.7,-0.6 -4.43,-0.6 -1.93,0 -3.32,0.27 -4.17,0.8 -0.85,0.54 -1.27,1.36 -1.27,2.46 0,0.66 0.16,1.21 0.47,1.66 0.31,0.45 0.75,0.85 1.32,1.22 0.57,0.36 1.23,0.69 1.97,0.98 0.74,0.29 1.56,0.6 2.46,0.91 1.87,0.69 3.49,1.37 4.87,2.05 1.38,0.68 2.53,1.46 3.45,2.36 0.91,0.9 1.6,1.95 2.05,3.16 0.45,1.21 0.67,2.68 0.67,4.4 0,3.35 -1.17,5.95 -3.52,7.8 -2.35,1.85 -5.89,2.77 -10.62,2.77 -1.59,0 -3.02,-0.1 -4.3,-0.29 -1.28,-0.19 -2.41,-0.42 -3.39,-0.7 -0.98,-0.28 -1.83,-0.57 -2.54,-0.88 -0.71,-0.31 -1.3,-0.6 -1.79,-0.88 l 2.28,-6.42 c 1.07,0.59 2.39,1.11 3.96,1.58 1.57,0.47 3.5,0.7 5.78,0.7 z"
       id="path14" />
    <path
       class="cls-1"
       d="m 499.12,156.04 c -5.84,0 -10.28,-1.62 -13.34,-4.87 -3.06,-3.25 -4.58,-7.86 -4.58,-13.83 0,-2.97 0.47,-5.62 1.4,-7.95 0.93,-2.33 2.21,-4.3 3.83,-5.91 1.62,-1.61 3.56,-2.82 5.8,-3.65 2.25,-0.83 4.68,-1.24 7.3,-1.24 1.52,0 2.9,0.11 4.14,0.34 1.24,0.23 2.33,0.48 3.26,0.78 0.93,0.29 1.71,0.6 2.33,0.91 0.62,0.31 1.07,0.55 1.35,0.73 l -2.33,6.53 c -1.11,-0.59 -2.39,-1.09 -3.86,-1.5 -1.47,-0.41 -3.13,-0.62 -5,-0.62 -1.24,0 -2.46,0.21 -3.65,0.62 -1.19,0.41 -2.25,1.08 -3.16,1.99 -0.92,0.92 -1.65,2.1 -2.2,3.55 -0.55,1.45 -0.83,3.21 -0.83,5.28 0,1.66 0.18,3.2 0.54,4.64 0.36,1.43 0.95,2.67 1.76,3.7 0.81,1.04 1.87,1.86 3.19,2.46 1.31,0.6 2.9,0.91 4.77,0.91 1.17,0 2.23,-0.07 3.16,-0.21 0.93,-0.14 1.76,-0.3 2.49,-0.49 0.73,-0.19 1.36,-0.41 1.92,-0.65 0.55,-0.24 1.05,-0.47 1.5,-0.67 l 2.23,6.48 c -1.14,0.69 -2.75,1.31 -4.82,1.86 -2.07,0.55 -4.47,0.83 -7.2,0.83 z"
       id="path15" />
    <path
       class="cls-1"
       d="m 537.97,119.41 h 8.08 v 35.9 h -8.08 V 140.08 H 524.4 v 15.23 h -8.08 v -35.9 h 8.08 v 13.73 h 13.57 z"
       id="path16" />
    <path
       class="cls-1"
       d="m 578.32,148.37 v 6.94 h -23.98 v -35.9 h 8.08 v 28.96 z"
       id="path17" />
    <path
       class="cls-1"
       d="m 616.66,137.33 c 0,3.07 -0.46,5.78 -1.37,8.11 -0.92,2.33 -2.17,4.28 -3.75,5.85 -1.59,1.57 -3.48,2.75 -5.67,3.55 -2.19,0.79 -4.55,1.19 -7.07,1.19 -2.52,0 -4.77,-0.4 -6.94,-1.19 -2.18,-0.79 -4.08,-1.98 -5.7,-3.55 -1.62,-1.57 -2.9,-3.52 -3.83,-5.85 -0.93,-2.33 -1.4,-5.03 -1.4,-8.11 0,-3.08 0.48,-5.78 1.45,-8.11 0.97,-2.33 2.27,-4.29 3.91,-5.88 1.64,-1.59 3.54,-2.78 5.7,-3.57 2.16,-0.79 4.43,-1.19 6.81,-1.19 2.38,0 4.77,0.4 6.94,1.19 2.18,0.79 4.07,1.99 5.7,3.57 1.62,1.59 2.9,3.55 3.83,5.88 0.93,2.33 1.4,5.03 1.4,8.11 z m -27.4,0 c 0,1.76 0.22,3.35 0.65,4.77 0.43,1.42 1.05,2.63 1.87,3.65 0.81,1.02 1.8,1.81 2.98,2.36 1.17,0.55 2.52,0.83 4.04,0.83 1.52,0 2.82,-0.28 4.01,-0.83 1.19,-0.55 2.19,-1.34 3,-2.36 0.81,-1.02 1.43,-2.24 1.87,-3.65 0.43,-1.42 0.65,-3 0.65,-4.77 0,-1.77 -0.22,-3.36 -0.65,-4.79 -0.43,-1.43 -1.05,-2.66 -1.87,-3.68 -0.81,-1.02 -1.81,-1.8 -3,-2.36 -1.19,-0.55 -2.53,-0.83 -4.01,-0.83 -1.48,0 -2.87,0.28 -4.04,0.85 -1.17,0.57 -2.17,1.36 -2.98,2.38 -0.81,1.02 -1.43,2.25 -1.87,3.68 -0.43,1.43 -0.65,3.01 -0.65,4.74 z"
       id="path18" />
    <path
       class="cls-1"
       d="m 633.18,149.15 c 1.14,0 2.08,-0.09 2.82,-0.29 0.74,-0.19 1.34,-0.45 1.79,-0.78 0.45,-0.33 0.76,-0.72 0.93,-1.17 0.17,-0.45 0.26,-0.95 0.26,-1.5 0,-1.17 -0.55,-2.15 -1.66,-2.93 -1.11,-0.78 -3,-1.61 -5.7,-2.51 -1.17,-0.41 -2.35,-0.89 -3.52,-1.42 -1.17,-0.54 -2.23,-1.21 -3.16,-2.02 -0.93,-0.81 -1.69,-1.8 -2.28,-2.95 -0.59,-1.16 -0.88,-2.56 -0.88,-4.22 0,-1.66 0.31,-3.15 0.93,-4.48 0.62,-1.33 1.5,-2.46 2.64,-3.39 1.14,-0.93 2.52,-1.65 4.14,-2.15 1.62,-0.5 3.45,-0.75 5.49,-0.75 2.42,0 4.51,0.26 6.27,0.78 1.76,0.52 3.21,1.09 4.35,1.71 l -2.33,6.37 c -1,-0.52 -2.12,-0.98 -3.34,-1.37 -1.23,-0.4 -2.7,-0.6 -4.43,-0.6 -1.93,0 -3.32,0.27 -4.17,0.8 -0.85,0.54 -1.27,1.36 -1.27,2.46 0,0.66 0.16,1.21 0.47,1.66 0.31,0.45 0.75,0.85 1.32,1.22 0.57,0.36 1.23,0.69 1.97,0.98 0.74,0.29 1.56,0.6 2.46,0.91 1.87,0.69 3.49,1.37 4.87,2.05 1.38,0.68 2.53,1.46 3.45,2.36 0.91,0.9 1.6,1.95 2.05,3.16 0.45,1.21 0.67,2.68 0.67,4.4 0,3.35 -1.17,5.95 -3.52,7.8 -2.35,1.85 -5.89,2.77 -10.62,2.77 -1.59,0 -3.02,-0.1 -4.3,-0.29 -1.28,-0.19 -2.41,-0.42 -3.39,-0.7 -0.98,-0.28 -1.83,-0.57 -2.54,-0.88 -0.71,-0.31 -1.3,-0.6 -1.79,-0.88 l 2.28,-6.42 c 1.07,0.59 2.39,1.11 3.96,1.58 1.57,0.47 3.5,0.7 5.78,0.7 z"
       id="path19" />
    <path
       class="cls-1"
       d="m 663.33,149.15 c 1.14,0 2.08,-0.09 2.82,-0.29 0.74,-0.19 1.34,-0.45 1.79,-0.78 0.45,-0.33 0.76,-0.72 0.93,-1.17 0.17,-0.45 0.26,-0.95 0.26,-1.5 0,-1.17 -0.55,-2.15 -1.66,-2.93 -1.11,-0.78 -3,-1.61 -5.7,-2.51 -1.17,-0.41 -2.35,-0.89 -3.52,-1.42 -1.17,-0.54 -2.23,-1.21 -3.16,-2.02 -0.93,-0.81 -1.69,-1.8 -2.28,-2.95 -0.59,-1.16 -0.88,-2.56 -0.88,-4.22 0,-1.66 0.31,-3.15 0.93,-4.48 0.62,-1.33 1.5,-2.46 2.64,-3.39 1.14,-0.93 2.52,-1.65 4.14,-2.15 1.62,-0.5 3.45,-0.75 5.49,-0.75 2.42,0 4.51,0.26 6.27,0.78 1.76,0.52 3.21,1.09 4.35,1.71 l -2.33,6.37 c -1,-0.52 -2.12,-0.98 -3.34,-1.37 -1.23,-0.4 -2.7,-0.6 -4.43,-0.6 -1.93,0 -3.32,0.27 -4.17,0.8 -0.85,0.54 -1.27,1.36 -1.27,2.46 0,0.66 0.16,1.21 0.47,1.66 0.31,0.45 0.75,0.85 1.32,1.22 0.57,0.36 1.23,0.69 1.97,0.98 0.74,0.29 1.56,0.6 2.46,0.91 1.87,0.69 3.49,1.37 4.87,2.05 1.38,0.68 2.53,1.46 3.45,2.36 0.91,0.9 1.6,1.95 2.05,3.16 0.45,1.21 0.67,2.68 0.67,4.4 0,3.35 -1.17,5.95 -3.52,7.8 -2.35,1.85 -5.89,2.77 -10.62,2.77 -1.59,0 -3.02,-0.1 -4.3,-0.29 -1.28,-0.19 -2.41,-0.42 -3.39,-0.7 -0.98,-0.28 -1.83,-0.57 -2.54,-0.88 -0.71,-0.31 -1.3,-0.6 -1.79,-0.88 l 2.28,-6.42 c 1.07,0.59 2.39,1.11 3.96,1.58 1.57,0.47 3.5,0.7 5.78,0.7 z"
       id="path20" />
  </g>
</svg>
