<svg width="105" height="165" xmlns="http://www.w3.org/2000/svg">

 <g>
  <title>Layer 1</title>
  <g>

   <g class="layer">
    <title>Layer 1</title>
    <path stroke-width="0px" fill="#0f1f56" id="svg_1" d="m104.5,12l-12.73,18.43c-9.31,-2.75 -19.15,-4.52 -29.38,-5.24l-10.14,-25.19l-10.12,25.14c-10.25,0.67 -20.14,2.39 -29.52,5.12l-12.61,-18.26l0,100.29s0,0 0,0c0,24.65 17.5,46.17 41.61,51.16c3.48,0.72 7.06,1.09 10.64,1.09s7.16,-0.37 10.64,-1.09c24.11,-4.99 41.61,-26.51 41.61,-51.16l0,0l0,-100.29zm-62.38,100.4c-11.07,4.13 -22.64,5.29 -33.97,3.42c-0.09,-1.17 -0.15,-4.71 -0.15,-4.71c3.57,0.49 7.16,0.76 10.74,0.76c9.55,0 19.06,-1.75 28.27,-5.19c16.16,-6.03 33.18,-6.55 49.48,-1.57l0,4.3c-17.99,-4.6 -36.68,-3.61 -54.38,2.99l0.01,0zm54.38,-21.82c-17.99,-4.6 -36.68,-3.61 -54.38,2.99c-11.12,4.15 -22.74,5.3 -34.12,3.4l0,-4.69c3.57,0.49 7.16,0.76 10.74,0.76c9.55,0 19.06,-1.75 28.27,-5.19c16.17,-6.03 33.18,-6.55 49.48,-1.57l0,4.3l0.01,0zm-79.86,-40.19c2.55,-4 2.75,-8.98 0.65,-13.13c6.9,-1.85 14.09,-3.12 21.5,-3.82l-0.91,2.27c-1.58,3.91 -1.2,8.24 1.02,11.87l11.43,18.67c-0.11,1.42 -0.28,3.69 -0.45,5.98c-2.6,0.72 -5.19,1.55 -7.75,2.51c-11.12,4.15 -22.74,5.3 -34.12,3.4l0,-14.22l8.63,-13.54l0,0.01zm-4.73,80c2.28,0.2 4.56,0.31 6.83,0.31c9.41,0 18.79,-1.7 27.88,-5.05c-2.03,19.1 -4.12,26.58 -5.58,29.45c-13.15,-3.44 -23.74,-12.75 -29.13,-24.71zm51.56,24.71c-1.54,-3.03 -3.77,-11.2 -5.91,-32.7c12.42,-2.77 25.14,-2.41 37.48,1.1c-4.01,15.21 -15.99,27.53 -31.57,31.6zm33.03,-83.35c-13.82,-3.54 -28.04,-3.76 -41.92,-0.68c-0.17,-2.26 -0.32,-4.23 -0.36,-4.88l11.4,-18.61c2.22,-3.63 2.6,-7.96 1.02,-11.87l-0.89,-2.2c7.38,0.73 14.53,2.04 21.38,3.91c-2.01,4.11 -1.77,9.01 0.74,12.96l8.63,13.54l0,7.83z" class="cls-1"/>
   </g>
  </g>
 </g>
</svg>