<?xml version="1.0" encoding="UTF-8"?>
<svg id="Logo" xmlns="http://www.w3.org/2000/svg" viewBox="0 0 365.67 290.99">
  <defs>
    <style>
      .cls-1 {
        fill: #0f1f56;
        stroke-width: 0px;
      }
    </style>
  </defs>
  <g>
    <path class="cls-1" d="m153.82,223.47v2.71h-9.37v-14.03h3.16v11.32h6.21Z"/>
    <path class="cls-1" d="m155.84,226.18v-14.03h9.47v2.65h-6.32v2.75h5.61v2.59h-5.61v3.38h6.78v2.65h-9.94Z"/>
    <path class="cls-1" d="m174.95,214.58c-1.47,0-2.53.41-3.19,1.22-.65.82-.98,1.93-.98,3.35,0,.69.08,1.31.24,1.87.16.56.4,1.04.73,1.45.32.4.73.72,1.21.94s1.05.33,1.7.33c.35,0,.65,0,.9-.02s.47-.04.66-.08v-4.88h3.16v6.94c-.38.15-.99.31-1.82.48-.84.17-1.87.25-3.1.25-1.05,0-2.01-.16-2.86-.49-.86-.32-1.59-.8-2.2-1.42-.61-.62-1.08-1.38-1.41-2.29-.33-.9-.5-1.94-.5-3.1s.18-2.21.55-3.12.86-1.67,1.5-2.3c.63-.63,1.38-1.1,2.24-1.43.86-.32,1.77-.49,2.74-.49.66,0,1.26.04,1.79.13.53.09.99.19,1.38.3.38.12.7.23.95.35.25.12.43.22.54.28l-.91,2.53c-.43-.23-.93-.43-1.49-.6-.56-.17-1.17-.25-1.83-.25Z"/>
    <path class="cls-1" d="m182.32,212.15h3.16v14.03h-3.16v-14.03Z"/>
    <path class="cls-1" d="m202.08,219.16c0,1.2-.18,2.26-.54,3.17s-.85,1.67-1.47,2.29-1.36,1.08-2.22,1.39c-.86.31-1.78.47-2.76.47s-1.86-.16-2.71-.47c-.85-.31-1.59-.77-2.23-1.39-.63-.61-1.13-1.38-1.5-2.29s-.55-1.97-.55-3.17.19-2.26.57-3.17c.38-.91.89-1.68,1.53-2.3.64-.62,1.38-1.09,2.23-1.4.84-.31,1.73-.46,2.66-.46s1.86.16,2.71.46c.85.31,1.59.78,2.23,1.4.63.62,1.13,1.39,1.5,2.3.36.91.55,1.97.55,3.17Zm-10.71,0c0,.69.08,1.31.25,1.86.17.55.41,1.03.73,1.43.32.4.71.71,1.16.92s.99.32,1.58.32,1.1-.11,1.57-.32c.47-.22.86-.52,1.17-.92.32-.4.56-.87.73-1.43.17-.55.25-1.17.25-1.86s-.08-1.31-.25-1.87c-.17-.56-.41-1.04-.73-1.44-.32-.4-.71-.71-1.17-.92-.46-.22-.99-.32-1.57-.32s-1.12.11-1.58.33-.85.53-1.16.93c-.32.4-.56.88-.73,1.44-.17.56-.25,1.18-.25,1.85Z"/>
    <path class="cls-1" d="m214.12,226.18c-.9-1.61-1.88-3.19-2.93-4.76-1.05-1.57-2.17-3.04-3.36-4.43v9.19h-3.12v-14.03h2.57c.45.45.94.99,1.48,1.64.54.65,1.09,1.34,1.65,2.08.56.74,1.12,1.5,1.67,2.29.55.79,1.07,1.55,1.56,2.28v-8.28h3.14v14.03h-2.65Z"/>
    <path class="cls-1" d="m107.59,233.94c.16.55.34,1.18.54,1.87.2.69.4,1.41.63,2.16.22.74.45,1.48.68,2.23s.45,1.43.67,2.07c.18-.69.36-1.44.54-2.25.18-.81.36-1.65.52-2.51.16-.86.32-1.72.48-2.58.16-.86.3-1.68.44-2.48h3.28c-.48,2.35-1.02,4.73-1.64,7.15-.62,2.42-1.29,4.71-2.01,6.88h-2.89c-.47-1.3-.93-2.66-1.37-4.08-.44-1.42-.88-2.85-1.31-4.28-.43,1.43-.86,2.86-1.3,4.28-.43,1.42-.88,2.78-1.36,4.08h-2.89c-.72-2.17-1.39-4.47-2-6.88-.62-2.42-1.16-4.8-1.64-7.15h3.42c.14.8.28,1.62.45,2.48.16.86.33,1.72.51,2.58.18.86.36,1.7.54,2.51s.37,1.56.56,2.25c.24-.66.48-1.36.71-2.11.23-.74.45-1.48.67-2.23s.42-1.46.6-2.15c.18-.69.35-1.3.5-1.84h2.69Z"/>
    <path class="cls-1" d="m125.96,246.47c-.16-.49-.32-.99-.5-1.5s-.36-1.03-.54-1.53h-5.48c-.18.51-.35,1.02-.53,1.54-.18.51-.34,1.01-.5,1.5h-3.28c.53-1.51,1.03-2.91,1.5-4.19.47-1.28.94-2.49,1.39-3.62.45-1.13.9-2.21,1.34-3.23s.9-2.01,1.37-2.99h2.99c.46.97.92,1.97,1.36,2.99s.9,2.09,1.35,3.23.92,2.34,1.39,3.62c.47,1.28.98,2.68,1.5,4.19h-3.38Zm-3.79-10.85c-.07.2-.17.48-.31.83s-.29.76-.46,1.22c-.17.46-.37.97-.58,1.52-.21.55-.43,1.13-.65,1.74h4.01c-.21-.61-.42-1.19-.62-1.74-.2-.55-.39-1.06-.57-1.52-.18-.46-.34-.86-.48-1.21-.14-.35-.25-.62-.33-.82Z"/>
    <path class="cls-1" d="m135.35,244.06c.45,0,.81-.04,1.1-.11.29-.07.52-.17.7-.3.18-.13.3-.28.36-.46.07-.17.1-.37.1-.59,0-.46-.22-.84-.65-1.14s-1.17-.63-2.23-.98c-.46-.16-.92-.35-1.38-.56-.46-.21-.87-.47-1.23-.79s-.66-.7-.89-1.15c-.23-.45-.34-1-.34-1.65s.12-1.23.36-1.75c.24-.52.59-.96,1.03-1.33.45-.36.98-.64,1.62-.84.63-.2,1.35-.29,2.15-.29.94,0,1.76.1,2.45.3.69.2,1.25.42,1.7.67l-.91,2.49c-.39-.2-.83-.38-1.31-.54s-1.06-.23-1.73-.23c-.76,0-1.3.1-1.63.31s-.5.53-.5.96c0,.26.06.47.18.65.12.17.29.33.52.48s.48.27.77.38c.29.11.61.23.96.35.73.27,1.36.54,1.9.8.54.26.99.57,1.35.92.36.35.62.76.8,1.24.17.47.26,1.05.26,1.72,0,1.31-.46,2.32-1.38,3.05-.92.72-2.3,1.08-4.15,1.08-.62,0-1.18-.04-1.68-.11-.5-.07-.94-.17-1.33-.27-.38-.11-.72-.22-.99-.34-.28-.12-.51-.24-.7-.34l.89-2.51c.42.23.93.44,1.55.62.61.18,1.37.27,2.26.27Z"/>
    <path class="cls-1" d="m147.13,244.06c.45,0,.81-.04,1.1-.11.29-.07.52-.17.7-.3.18-.13.3-.28.36-.46.07-.17.1-.37.1-.59,0-.46-.22-.84-.65-1.14s-1.17-.63-2.23-.98c-.46-.16-.92-.35-1.38-.56-.46-.21-.87-.47-1.23-.79s-.66-.7-.89-1.15c-.23-.45-.34-1-.34-1.65s.12-1.23.36-1.75c.24-.52.59-.96,1.03-1.33.45-.36.98-.64,1.62-.84.63-.2,1.35-.29,2.15-.29.94,0,1.76.1,2.45.3.69.2,1.25.42,1.7.67l-.91,2.49c-.39-.2-.83-.38-1.31-.54s-1.06-.23-1.73-.23c-.76,0-1.3.1-1.63.31s-.5.53-.5.96c0,.26.06.47.18.65.12.17.29.33.52.48s.48.27.77.38c.29.11.61.23.96.35.73.27,1.36.54,1.9.8.54.26.99.57,1.35.92.36.35.62.76.8,1.24.17.47.26,1.05.26,1.72,0,1.31-.46,2.32-1.38,3.05-.92.72-2.3,1.08-4.15,1.08-.62,0-1.18-.04-1.68-.11-.5-.07-.94-.17-1.33-.27-.38-.11-.72-.22-.99-.34-.28-.12-.51-.24-.7-.34l.89-2.51c.42.23.93.44,1.55.62.61.18,1.37.27,2.26.27Z"/>
    <path class="cls-1" d="m155.08,246.47v-14.03h9.47v2.65h-6.32v2.75h5.61v2.59h-5.61v3.38h6.78v2.65h-9.94Z"/>
    <path class="cls-1" d="m171.46,232.28c2.11,0,3.72.38,4.84,1.12s1.68,1.91,1.68,3.49c0,.98-.23,1.78-.68,2.4s-1.1,1.1-1.95,1.45c.28.35.58.75.89,1.2.31.45.62.92.92,1.42.3.49.6,1.01.88,1.54.28.53.55,1.06.79,1.57h-3.53c-.26-.46-.52-.92-.78-1.4s-.53-.93-.81-1.38-.55-.87-.82-1.26c-.27-.4-.54-.76-.81-1.08h-1.56v5.12h-3.16v-13.83c.69-.13,1.4-.23,2.14-.28.74-.05,1.39-.08,1.97-.08Zm.18,2.69c-.23,0-.44,0-.62.02s-.35.03-.52.04v3.8h.89c1.19,0,2.04-.15,2.55-.45.51-.3.77-.8.77-1.52s-.26-1.18-.78-1.47c-.52-.29-1.29-.44-2.3-.44Z"/>
    <path class="cls-1" d="m184.68,244.06c.45,0,.81-.04,1.1-.11.29-.07.52-.17.7-.3.18-.13.3-.28.37-.46.07-.17.1-.37.1-.59,0-.46-.22-.84-.65-1.14-.43-.3-1.17-.63-2.23-.98-.46-.16-.92-.35-1.38-.56-.46-.21-.87-.47-1.23-.79s-.66-.7-.89-1.15c-.23-.45-.34-1-.34-1.65s.12-1.23.36-1.75c.24-.52.59-.96,1.03-1.33.45-.36.98-.64,1.62-.84.63-.2,1.35-.29,2.15-.29.94,0,1.76.1,2.45.3.69.2,1.25.42,1.7.67l-.91,2.49c-.39-.2-.83-.38-1.31-.54-.48-.16-1.06-.23-1.73-.23-.76,0-1.3.1-1.63.31-.33.21-.5.53-.5.96,0,.26.06.47.18.65.12.17.29.33.52.48.22.14.48.27.77.38.29.11.61.23.96.35.73.27,1.36.54,1.9.8.54.26.99.57,1.35.92.36.35.62.76.8,1.24.17.47.26,1.05.26,1.72,0,1.31-.46,2.32-1.38,3.05-.92.72-2.3,1.08-4.15,1.08-.62,0-1.18-.04-1.68-.11-.5-.07-.94-.17-1.33-.27-.38-.11-.72-.22-.99-.34-.28-.12-.51-.24-.7-.34l.89-2.51c.42.23.93.44,1.55.62.61.18,1.37.27,2.26.27Z"/>
    <path class="cls-1" d="m199.03,246.75c-2.28,0-4.02-.63-5.21-1.9s-1.79-3.07-1.79-5.41c0-1.16.18-2.2.55-3.11.36-.91.86-1.68,1.5-2.31.63-.63,1.39-1.1,2.27-1.43.88-.32,1.83-.49,2.85-.49.59,0,1.13.04,1.62.13.49.09.91.19,1.28.3.36.12.67.23.91.35.24.12.42.22.53.28l-.91,2.55c-.43-.23-.94-.42-1.51-.59-.57-.16-1.22-.24-1.95-.24-.49,0-.96.08-1.43.24-.47.16-.88.42-1.24.78s-.64.82-.86,1.39c-.22.57-.32,1.25-.32,2.06,0,.65.07,1.25.21,1.81.14.56.37,1.04.69,1.45.32.41.73.73,1.25.96s1.13.35,1.86.35c.46,0,.87-.03,1.23-.08s.69-.12.97-.19.53-.16.75-.25.41-.18.59-.26l.87,2.53c-.45.27-1.07.51-1.88.73-.81.21-1.75.32-2.81.32Z"/>
    <path class="cls-1" d="m214.21,232.44h3.16v14.03h-3.16v-5.95h-5.3v5.95h-3.16v-14.03h3.16v5.36h5.3v-5.36Z"/>
    <path class="cls-1" d="m229.98,243.76v2.71h-9.37v-14.03h3.16v11.32h6.21Z"/>
    <path class="cls-1" d="m244.96,239.45c0,1.2-.18,2.26-.54,3.17s-.85,1.67-1.47,2.29c-.62.61-1.36,1.08-2.22,1.39-.86.31-1.78.47-2.76.47s-1.86-.16-2.71-.47c-.85-.31-1.59-.77-2.23-1.39-.63-.61-1.13-1.38-1.5-2.29s-.55-1.97-.55-3.17.19-2.26.57-3.17c.38-.91.89-1.68,1.53-2.3.64-.62,1.38-1.09,2.23-1.4.84-.31,1.73-.46,2.66-.46s1.86.16,2.71.46c.85.31,1.59.78,2.23,1.4.63.62,1.13,1.39,1.5,2.3.36.91.55,1.97.55,3.17Zm-10.71,0c0,.69.08,1.31.25,1.86.17.55.41,1.03.73,1.43.32.4.71.71,1.16.92.46.22.98.32,1.58.32s1.1-.11,1.57-.32.86-.52,1.17-.92c.32-.4.56-.87.73-1.43.17-.55.25-1.17.25-1.86s-.08-1.31-.25-1.87c-.17-.56-.41-1.04-.73-1.44-.32-.4-.71-.71-1.17-.92s-.99-.32-1.57-.32-1.12.11-1.58.33c-.46.22-.85.53-1.16.93-.32.4-.56.88-.73,1.44-.17.56-.25,1.18-.25,1.85Z"/>
    <path class="cls-1" d="m251.42,244.06c.45,0,.81-.04,1.1-.11.29-.07.52-.17.7-.3.17-.13.3-.28.36-.46.07-.17.1-.37.1-.59,0-.46-.22-.84-.65-1.14s-1.17-.63-2.23-.98c-.46-.16-.92-.35-1.38-.56-.46-.21-.87-.47-1.24-.79s-.66-.7-.89-1.15c-.23-.45-.34-1-.34-1.65s.12-1.23.36-1.75.59-.96,1.03-1.33c.45-.36.98-.64,1.62-.84.63-.2,1.35-.29,2.15-.29.94,0,1.76.1,2.45.3.69.2,1.25.42,1.7.67l-.91,2.49c-.39-.2-.83-.38-1.31-.54-.48-.16-1.06-.23-1.73-.23-.76,0-1.3.1-1.63.31s-.5.53-.5.96c0,.26.06.47.18.65.12.17.29.33.52.48s.48.27.77.38c.29.11.61.23.96.35.73.27,1.36.54,1.9.8.54.26.99.57,1.35.92.36.35.62.76.8,1.24.18.47.26,1.05.26,1.72,0,1.31-.46,2.32-1.38,3.05-.92.72-2.3,1.08-4.15,1.08-.62,0-1.18-.04-1.68-.11-.5-.07-.94-.17-1.33-.27-.38-.11-.72-.22-.99-.34s-.51-.24-.7-.34l.89-2.51c.42.23.93.44,1.55.62.61.18,1.37.27,2.26.27Z"/>
    <path class="cls-1" d="m263.2,244.06c.45,0,.81-.04,1.1-.11.29-.07.52-.17.7-.3.17-.13.3-.28.36-.46.07-.17.1-.37.1-.59,0-.46-.22-.84-.65-1.14s-1.17-.63-2.23-.98c-.46-.16-.92-.35-1.38-.56-.46-.21-.87-.47-1.24-.79s-.66-.7-.89-1.15c-.23-.45-.34-1-.34-1.65s.12-1.23.36-1.75.59-.96,1.03-1.33c.45-.36.98-.64,1.62-.84.63-.2,1.35-.29,2.15-.29.94,0,1.76.1,2.45.3.69.2,1.25.42,1.7.67l-.91,2.49c-.39-.2-.83-.38-1.31-.54-.48-.16-1.06-.23-1.73-.23-.76,0-1.3.1-1.63.31s-.5.53-.5.96c0,.26.06.47.18.65.12.17.29.33.52.48s.48.27.77.38c.29.11.61.23.96.35.73.27,1.36.54,1.9.8.54.26.99.57,1.35.92.36.35.62.76.8,1.24.18.47.26,1.05.26,1.72,0,1.31-.46,2.32-1.38,3.05-.92.72-2.3,1.08-4.15,1.08-.62,0-1.18-.04-1.68-.11-.5-.07-.94-.17-1.33-.27-.38-.11-.72-.22-.99-.34s-.51-.24-.7-.34l.89-2.51c.42.23.93.44,1.55.62.61.18,1.37.27,2.26.27Z"/>
  </g>
  <path class="cls-1" d="m235.29,40.16l-12.73,18.43c-9.31-2.75-19.15-4.52-29.38-5.24l-10.14-25.19-10.12,25.14c-10.25.67-20.14,2.39-29.52,5.12l-12.61-18.26v100.29s0,0,0,0c0,24.65,17.5,46.17,41.61,51.16,3.48.72,7.06,1.09,10.64,1.09s7.16-.37,10.64-1.09c24.11-4.99,41.61-26.51,41.61-51.16h0V40.16Zm-62.38,100.4c-11.07,4.13-22.64,5.29-33.97,3.42-.09-1.17-.15-4.71-.15-4.71,3.57.49,7.16.76,10.74.76,9.55,0,19.06-1.75,28.27-5.19,16.16-6.03,33.18-6.55,49.48-1.57v4.3c-17.99-4.6-36.68-3.61-54.38,2.99Zm54.38-21.82c-17.99-4.6-36.68-3.61-54.38,2.99-11.12,4.15-22.74,5.3-34.12,3.4v-4.69c3.57.49,7.16.76,10.74.76,9.55,0,19.06-1.75,28.27-5.19,16.17-6.03,33.18-6.55,49.48-1.57v4.3Zm-79.86-40.19c2.55-4,2.75-8.98.65-13.13,6.9-1.85,14.09-3.12,21.5-3.82l-.91,2.27c-1.58,3.91-1.2,8.24,1.02,11.87l11.43,18.67c-.11,1.42-.28,3.69-.45,5.98-2.6.72-5.19,1.55-7.75,2.51-11.12,4.15-22.74,5.3-34.12,3.4v-14.22l8.63-13.54Zm-4.73,80c2.28.2,4.56.31,6.83.31,9.41,0,18.79-1.7,27.88-5.05-2.03,19.1-4.12,26.58-5.58,29.45-13.15-3.44-23.74-12.75-29.13-24.71Zm51.56,24.71c-1.54-3.03-3.77-11.2-5.91-32.7,12.42-2.77,25.14-2.41,37.48,1.1-4.01,15.21-15.99,27.53-31.57,31.6Zm33.03-83.35c-13.82-3.54-28.04-3.76-41.92-.68-.17-2.26-.32-4.23-.36-4.88l11.4-18.61c2.22-3.63,2.6-7.96,1.02-11.87l-.89-2.2c7.38.73,14.53,2.04,21.38,3.91-2.01,4.11-1.77,9.01.74,12.96l8.63,13.54v7.83Z"/>
</svg>